<?xml version="1.0" encoding="UTF-8"?>
<!DOCTYPE svg PUBLIC "-//W3C//DTD SVG 1.1//EN" "http://www.w3.org/Graphics/SVG/1.1/DTD/svg11.dtd">
<svg xmlns="http://www.w3.org/2000/svg" version="1.1" width="1000px" height="1000px" style="shape-rendering:geometricPrecision; text-rendering:geometricPrecision; image-rendering:optimizeQuality; fill-rule:evenodd; clip-rule:evenodd" xmlns:xlink="http://www.w3.org/1999/xlink">
<g><path style="opacity:0.753" fill="#FFFFFF" d="M 509.5,31.5 C 523.176,28.6778 528.676,34.0111 526,47.5C 525.215,49.286 524.049,50.786 522.5,52C 518.179,52.499 513.846,52.6657 509.5,52.5C 509.5,45.5 509.5,38.5 509.5,31.5 Z M 512.5,35.5 C 522.389,34.6496 525.389,38.8163 521.5,48C 518.649,49.2886 515.649,49.7886 512.5,49.5C 512.5,44.8333 512.5,40.1667 512.5,35.5 Z"/></g>
<g><path style="opacity:0.724" fill="#FFFFFF" d="M 479.5,32.5 C 484.179,32.3342 488.845,32.5008 493.5,33C 499.447,39.0919 499.781,45.4252 494.5,52C 489.964,53.3789 485.297,53.8789 480.5,53.5C 480.72,46.4567 480.386,39.4567 479.5,32.5 Z M 483.5,35.5 C 493.652,35.075 496.652,39.575 492.5,49C 489.937,50.0793 487.271,50.5793 484.5,50.5C 484.387,45.482 484.053,40.482 483.5,35.5 Z"/></g>
<g><path style="opacity:0.715" fill="#FFFFFF" d="M 530.5,32.5 C 535.833,32.5 541.167,32.5 546.5,32.5C 546.5,33.8333 546.5,35.1667 546.5,36.5C 542.534,35.8379 538.534,35.5045 534.5,35.5C 534.714,37.1439 534.38,38.6439 533.5,40C 537.533,40.6949 541.533,41.5283 545.5,42.5C 545.291,43.086 544.957,43.586 544.5,44C 540.848,44.4986 537.182,44.6653 533.5,44.5C 533.5,46.5 533.5,48.5 533.5,50.5C 537.5,50.5 541.5,50.5 545.5,50.5C 545.5,51.5 545.5,52.5 545.5,53.5C 540.167,53.5 534.833,53.5 529.5,53.5C 530.089,46.515 530.422,39.515 530.5,32.5 Z"/></g>
<g><path style="opacity:0.701" fill="#FFFFFF" d="M 471.5,34.5 C 472.568,33.5655 473.901,33.2322 475.5,33.5C 476.167,40.5 476.833,47.5 477.5,54.5C 476.127,54.6567 474.793,54.49 473.5,54C 470,49.8333 466.5,45.6667 463,41.5C 463.099,45.8184 463.599,50.1518 464.5,54.5C 463.311,55.4287 461.978,55.762 460.5,55.5C 459.899,48.4925 459.233,41.4925 458.5,34.5C 459.873,34.3433 461.207,34.51 462.5,35C 466,39.1667 469.5,43.3333 473,47.5C 472.946,43.05 472.446,38.7167 471.5,34.5 Z"/></g>
<g><path style="opacity:0.689" fill="#FFFFFF" d="M 556.5,33.5 C 562.155,34.2322 567.821,34.8989 573.5,35.5C 573.5,36.5 573.5,37.5 573.5,38.5C 571.167,38.5 568.833,38.5 566.5,38.5C 566.093,44.1613 565.76,49.828 565.5,55.5C 564.167,55.5 562.833,55.5 561.5,55.5C 561.729,49.7679 562.396,44.1013 563.5,38.5C 561.257,37.5258 558.924,37.1924 556.5,37.5C 556.5,36.1667 556.5,34.8333 556.5,33.5 Z"/></g>
<g><path style="opacity:0.685" fill="#FFFFFF" d="M 444.5,36.5 C 446.722,36.178 448.556,36.8446 450,38.5C 453.04,44.0816 456.207,49.5816 459.5,55C 458.407,56.3654 457.074,56.6987 455.5,56C 454.571,53.6086 453.071,51.7753 451,50.5C 448.901,51.2865 446.734,51.6199 444.5,51.5C 444.326,53.861 443.993,56.1944 443.5,58.5C 442.022,58.762 440.689,58.4287 439.5,57.5C 441.325,50.5328 442.992,43.5328 444.5,36.5 Z M 446.5,41.5 C 448.179,42.9997 449.512,44.833 450.5,47C 449.128,47.4017 447.795,47.9017 446.5,48.5C 446.162,46.3448 446.162,44.0115 446.5,41.5 Z"/></g>
<g><path style="opacity:0.69" fill="#FFFFFF" d="M 576.5,36.5 C 581.196,36.6706 585.863,37.1706 590.5,38C 591.337,39.0113 591.67,40.1779 591.5,41.5C 587.578,41.155 583.745,40.4884 580,39.5C 579.505,41.4727 579.338,43.4727 579.5,45.5C 582.881,45.4595 586.214,45.7929 589.5,46.5C 589.5,47.5 589.5,48.5 589.5,49.5C 586.449,49.6355 583.449,49.3022 580.5,48.5C 578.025,49.6773 577.025,51.6773 577.5,54.5C 581.5,54.8333 585.5,55.1667 589.5,55.5C 589.5,56.8333 589.5,58.1667 589.5,59.5C 584.227,58.3992 578.894,57.7325 573.5,57.5C 574.222,50.4473 575.222,43.4473 576.5,36.5 Z"/></g>
<g><path style="opacity:0.668" fill="#FFFFFF" d="M 433.5,37.5 C 434.117,37.6107 434.617,37.944 435,38.5C 435.974,44.5377 437.141,50.5377 438.5,56.5C 438.281,58.9153 436.948,59.9153 434.5,59.5C 432.938,45.1111 431.605,45.4444 430.5,60.5C 428.856,60.7135 427.356,60.3802 426,59.5C 420.396,47.3644 419.229,47.8644 422.5,61C 421.437,62.1882 420.103,62.6882 418.5,62.5C 417.482,55.578 416.149,48.7447 414.5,42C 416.165,41.2115 417.831,40.8782 419.5,41C 422.208,45.5843 425.042,50.0843 428,54.5C 428.667,49.8333 429.333,45.1667 430,40.5C 430.985,39.1859 432.152,38.1859 433.5,37.5 Z"/></g>
<g><path style="opacity:0.676" fill="#FFFFFF" d="M 598.5,40.5 C 601.518,40.3354 604.518,40.502 607.5,41C 611.509,42.8856 612.509,45.3856 610.5,48.5C 603.634,40.9727 598.968,42.1394 596.5,52C 596.939,57.1163 599.605,59.1163 604.5,58C 605.943,56.9328 607.276,55.7662 608.5,54.5C 611.123,56.8748 610.789,59.0414 607.5,61C 599.039,63.8845 594.039,60.8845 592.5,52C 593.085,47.3255 595.085,43.4922 598.5,40.5 Z"/></g>
<g><path style="opacity:0.68" fill="#FFFFFF" d="M 408.5,42.5 C 409.5,42.5 410.5,42.5 411.5,42.5C 411.67,43.8221 411.337,44.9887 410.5,46C 407.833,46.6667 405.167,47.3333 402.5,48C 399.919,49.8407 399.919,51.6741 402.5,53.5C 405.708,52.198 409.041,51.5313 412.5,51.5C 412.719,52.675 412.386,53.675 411.5,54.5C 408.553,55.4226 405.553,56.0893 402.5,56.5C 402.261,58.4672 402.594,60.3005 403.5,62C 407.192,61.6622 410.859,60.8289 414.5,59.5C 415.429,60.6888 415.762,62.0222 415.5,63.5C 410.941,64.1788 406.441,65.1788 402,66.5C 401.055,66.0946 400.388,65.428 400,64.5C 398.497,58.4895 396.997,52.4895 395.5,46.5C 399.943,45.1559 404.276,43.8225 408.5,42.5 Z"/></g>
<g><path style="opacity:0.68" fill="#FFFFFF" d="M 616.5,43.5 C 617.833,43.5 619.167,43.5 620.5,43.5C 620.149,46.2377 619.482,48.9044 618.5,51.5C 621.326,52.5796 624.159,53.5796 627,54.5C 628.446,52.0585 629.279,49.3919 629.5,46.5C 631.346,46.2222 632.68,46.8888 633.5,48.5C 631.833,54.5 630.167,60.5 628.5,66.5C 627.167,67.8333 625.833,67.8333 624.5,66.5C 628.515,58.87 626.182,55.2033 617.5,55.5C 617.322,58.2165 616.822,60.8832 616,63.5C 614.989,64.3366 613.822,64.67 612.5,64.5C 613.673,57.4724 615.007,50.4724 616.5,43.5 Z"/></g>
<g><path style="opacity:0.685" fill="#FFFFFF" d="M 637.5,48.5 C 638.822,48.33 639.989,48.6634 641,49.5C 642.667,54.5 644.333,59.5 646,64.5C 647.786,61.0423 649.119,57.3756 650,53.5C 651.011,52.6634 652.178,52.33 653.5,52.5C 652.277,59.7253 650.277,66.7253 647.5,73.5C 646.328,73.0814 645.328,72.4147 644.5,71.5C 642.765,66.4616 640.932,61.4616 639,56.5C 637.724,60.8232 636.558,65.1565 635.5,69.5C 633.897,69.6882 632.563,69.1882 631.5,68C 633.576,61.5332 635.576,55.0332 637.5,48.5 Z"/></g>
<g><path style="opacity:0.667" fill="#FFFFFF" d="M 380.5,49.5 C 381.5,49.5 382.5,49.5 383.5,49.5C 384.562,55.3516 386.229,61.0183 388.5,66.5C 390.783,65.6791 393.116,65.0124 395.5,64.5C 397,64.4528 398,65.1195 398.5,66.5C 394.104,68.7659 389.437,70.0992 384.5,70.5C 383.306,64.0569 381.639,57.7235 379.5,51.5C 379.863,50.8165 380.196,50.1499 380.5,49.5 Z"/></g>
<g><path style="opacity:0.672" fill="#FFFFFF" d="M 364.5,54.5 C 365.675,54.281 366.675,54.6143 367.5,55.5C 369.167,60.1667 370.833,64.8333 372.5,69.5C 373.167,69.8333 373.833,70.1667 374.5,70.5C 377.13,69.6221 379.797,68.9555 382.5,68.5C 382.67,69.8221 382.337,70.9887 381.5,72C 377.859,73.2695 374.192,74.4361 370.5,75.5C 368.266,68.9659 365.933,62.4659 363.5,56C 364.056,55.6174 364.389,55.1174 364.5,54.5 Z"/></g>
<g><path style="opacity:0.66" fill="#FFFFFF" d="M 657.5,54.5 C 659.635,54.147 660.968,54.9803 661.5,57C 659.756,63.5853 657.256,69.7519 654,75.5C 652.941,75.3699 652.108,74.8699 651.5,74C 654.206,67.7144 656.206,61.2144 657.5,54.5 Z"/></g>
<g><path style="opacity:0.71" fill="#FFFFFF" d="M 352.5,58.5 C 355.394,59.8823 357.894,61.8823 360,64.5C 362.295,67.7974 364.962,70.7974 368,73.5C 368.483,74.448 368.649,75.448 368.5,76.5C 367.127,76.6567 365.793,76.49 364.5,76C 363.275,74.437 361.775,73.2703 360,72.5C 357.953,73.6094 355.787,74.2761 353.5,74.5C 353.998,77.6808 353.165,80.3475 351,82.5C 349.918,74.2338 350.418,66.2338 352.5,58.5 Z M 353.5,63.5 C 355.033,65.3548 356.7,67.1881 358.5,69C 357.109,70.02 355.609,70.8534 354,71.5C 353.503,68.854 353.336,66.1873 353.5,63.5 Z"/></g>
<g><path style="opacity:0.684" fill="#FFFFFF" d="M 666.5,59.5 C 676.974,57.8142 681.807,62.1475 681,72.5C 680.009,75.6604 678.176,78.1604 675.5,80C 678.079,81.6117 678.079,83.1117 675.5,84.5C 674.167,83.8333 673.167,82.8333 672.5,81.5C 661.859,80.2164 658.359,74.5497 662,64.5C 663.707,62.9625 665.207,61.2959 666.5,59.5 Z M 669.5,62.5 C 677.09,63.3378 679.257,67.3378 676,74.5C 674.092,76.9065 672.092,76.9065 670,74.5C 668.324,77.16 666.657,77.16 665,74.5C 663.87,69.3746 665.37,65.3746 669.5,62.5 Z"/></g>
<g><path style="opacity:0.685" fill="#FFFFFF" d="M 686.5,65.5 C 687.833,65.5 689.167,65.5 690.5,65.5C 688.987,70.6988 687.32,75.8654 685.5,81C 686.632,84.9819 689.132,86.1485 693,84.5C 695.274,80.2864 697.274,75.9531 699,71.5C 700.011,70.6634 701.178,70.33 702.5,70.5C 701.598,77.1368 698.932,82.9701 694.5,88C 687.615,90.0619 683.282,87.7286 681.5,81C 682.877,75.7025 684.544,70.5359 686.5,65.5 Z"/></g>
<g><path style="opacity:0.667" fill="#FFFFFF" d="M 323.5,69.5 C 334.249,68.7489 339.082,73.7489 338,84.5C 333.157,92.377 327.157,93.377 320,87.5C 315.81,80.2836 316.976,74.2836 323.5,69.5 Z M 325.5,72.5 C 332.42,73.5888 335.253,77.5888 334,84.5C 329.181,88.9191 325.181,88.2524 322,82.5C 320.581,78.0823 321.748,74.7489 325.5,72.5 Z"/></g>
<g><path style="opacity:0.592" fill="#FFFFFF" d="M 345.5,73.5 C 347.121,73.7869 348.121,74.7869 348.5,76.5C 345.696,78.1014 342.696,79.1014 339.5,79.5C 339.351,78.448 339.517,77.448 340,76.5C 342.058,75.7709 343.891,74.7709 345.5,73.5 Z"/></g>
<g><path style="opacity:0.661" fill="#FFFFFF" d="M 706.5,73.5 C 711.701,75.0979 716.701,77.2646 721.5,80C 721.002,81.1581 720.169,81.9915 719,82.5C 716,81.1667 713,79.8333 710,78.5C 708.231,79.3709 707.564,80.7043 708,82.5C 711.118,83.9706 713.952,85.804 716.5,88C 716.37,89.0588 715.87,89.8921 715,90.5C 712,88.8333 709,87.1667 706,85.5C 703.936,87.2433 703.436,89.2433 704.5,91.5C 707.863,92.843 710.863,94.6764 713.5,97C 713.37,98.0588 712.87,98.8921 712,99.5C 707.217,97.1964 702.717,94.5297 698.5,91.5C 701.179,85.4785 703.845,79.4785 706.5,73.5 Z"/></g>
<g><path style="opacity:0.668" fill="#FFFFFF" d="M 303.5,78.5 C 306.518,78.3354 309.518,78.502 312.5,79C 315.287,80.9066 315.12,82.4066 312,83.5C 304.571,80.5792 301.571,83.2458 303,91.5C 305.339,96.2565 308.839,97.4231 313.5,95C 314.423,92.9592 314.756,90.7925 314.5,88.5C 315.833,88.5 317.167,88.5 318.5,88.5C 318.306,98.0888 313.64,101.589 304.5,99C 297.05,92.3185 296.717,85.4852 303.5,78.5 Z"/></g>
<g><path style="opacity:0.66" fill="#FFFFFF" d="M 724.5,83.5 C 732.397,83.0674 736.397,86.7341 736.5,94.5C 735.178,94.67 734.011,94.3366 733,93.5C 732.727,88.7274 730.227,86.7274 725.5,87.5C 726.608,91.1311 728.774,94.1311 732,96.5C 733.817,103.856 730.983,106.689 723.5,105C 717.202,102.924 715.535,99.0904 718.5,93.5C 719.979,95.6782 721.312,98.0115 722.5,100.5C 725.132,103.181 727.466,103.014 729.5,100C 727.099,97.0567 724.599,94.2234 722,91.5C 721.018,88.2253 721.851,85.5586 724.5,83.5 Z"/></g>
<g><path style="opacity:0.673" fill="#FFFFFF" d="M 290.5,85.5 C 291.376,85.3691 292.043,85.7025 292.5,86.5C 295.634,91.9358 298.634,97.4358 301.5,103C 301.333,104.5 300.5,105.333 299,105.5C 294.194,103.43 289.527,101.097 285,98.5C 285.843,102.69 287.676,106.524 290.5,110C 289.421,110.956 288.255,111.789 287,112.5C 283.014,106.195 279.847,99.5284 277.5,92.5C 279.199,92.3398 280.866,92.5065 282.5,93C 286.857,95.3512 291.19,97.3512 295.5,99C 292.914,95.1641 290.581,91.1641 288.5,87C 289.416,86.7216 290.082,86.2216 290.5,85.5 Z"/></g>
<g><path style="opacity:0.653" fill="#FFFFFF" d="M 748.5,95.5 C 753.9,96.9033 758.566,99.5699 762.5,103.5C 762.167,104.5 761.5,105.167 760.5,105.5C 757.249,103.625 754.082,101.625 751,99.5C 750.293,101.081 749.46,102.581 748.5,104C 750.67,105.586 753.004,106.92 755.5,108C 758.079,109.612 758.079,111.112 755.5,112.5C 752.833,110.833 750.167,109.167 747.5,107.5C 745.639,108.528 744.305,110.028 743.5,112C 746.667,113.833 749.833,115.667 753,117.5C 753.699,119.074 753.365,120.407 752,121.5C 747.753,118.292 743.253,115.458 738.5,113C 741.983,107.193 745.317,101.36 748.5,95.5 Z"/></g>
<g><path style="opacity:0.681" fill="#FFFFFF" d="M 266.5,99.5 C 273.615,102.602 279.948,106.936 285.5,112.5C 285.113,113.72 284.28,114.387 283,114.5C 281.155,113.244 279.155,112.244 277,111.5C 271.802,112.672 270.302,115.672 272.5,120.5C 271.395,121.892 270.061,123.059 268.5,124C 263.847,123.346 259.181,122.679 254.5,122C 253.833,122.667 253.167,123.333 252.5,124C 254.032,126.034 255.365,128.201 256.5,130.5C 256.167,131.5 255.5,132.167 254.5,132.5C 249.775,127.397 245.775,121.731 242.5,115.5C 246.927,110.776 252.261,108.61 258.5,109C 260.703,111.76 261.036,114.76 259.5,118C 262.284,118.892 264.95,120.058 267.5,121.5C 267.833,121 268.167,120.5 268.5,120C 266.429,113.199 265.763,106.366 266.5,99.5 Z M 269.5,104.5 C 271.296,105.793 272.963,107.293 274.5,109C 270.123,111.139 268.456,109.639 269.5,104.5 Z M 253.5,111.5 C 255.384,111.712 256.717,112.712 257.5,114.5C 255.766,117.2 253.432,119.2 250.5,120.5C 249.5,119.167 248.5,117.833 247.5,116.5C 249.571,114.815 251.571,113.148 253.5,111.5 Z"/></g>
<g><path style="opacity:0.646" fill="#FFFFFF" d="M 764.5,104.5 C 769.866,107.021 774.866,110.188 779.5,114C 778.667,114.833 777.833,115.667 777,116.5C 775.333,115.167 773.667,113.833 772,112.5C 768.98,117.887 765.48,122.887 761.5,127.5C 759.717,126.652 759.217,125.319 760,123.5C 762.833,119.333 765.667,115.167 768.5,111C 767.271,109.471 765.771,108.304 764,107.5C 763.53,106.423 763.697,105.423 764.5,104.5 Z"/></g>
<g><path style="opacity:0.647" fill="#FFFFFF" d="M 238.5,117.5 C 239.922,117.75 240.922,118.583 241.5,120C 239.167,121.833 236.833,123.667 234.5,125.5C 233.239,127.562 233.739,129.228 236,130.5C 238.364,128.637 240.864,126.971 243.5,125.5C 244.287,126.242 244.953,127.075 245.5,128C 242.852,129.649 240.519,131.649 238.5,134C 240.016,136.024 241.349,138.191 242.5,140.5C 242.167,141.5 241.5,142.167 240.5,142.5C 236.007,137.168 231.673,131.668 227.5,126C 231.235,123.147 234.902,120.313 238.5,117.5 Z"/></g>
<g><path style="opacity:0.675" fill="#FFFFFF" d="M 787.5,119.5 C 793.329,121.657 796.996,125.657 798.5,131.5C 797.452,141.732 792.119,145.232 782.5,142C 780.023,140.357 777.69,138.524 775.5,136.5C 779.765,130.95 783.765,125.284 787.5,119.5 Z M 788.5,125.5 C 795.044,127.243 796.544,130.91 793,136.5C 788.815,141.541 784.648,141.374 780.5,136C 783.383,132.624 786.049,129.124 788.5,125.5 Z"/></g>
<g><path style="opacity:0.967" fill="#FFFFFF" d="M 344.5,124.5 C 364.312,124.217 383.979,125.717 403.5,129C 423.739,135.25 434.573,149.083 436,170.5C 438.232,187.208 435.899,203.208 429,218.5C 422.322,229.167 412.822,236 400.5,239C 379.721,242.473 358.888,243.306 338,241.5C 337.333,203.167 337.333,164.833 338,126.5C 340.277,125.883 342.444,125.216 344.5,124.5 Z M 374.5,153.5 C 379.232,153.378 383.898,153.878 388.5,155C 395.572,157.603 399.406,162.769 400,170.5C 400.667,178.833 400.667,187.167 400,195.5C 397.407,210.239 388.574,216.239 373.5,213.5C 373.179,193.424 373.513,173.424 374.5,153.5 Z"/></g>
<g><path style="opacity:0.963" fill="#FFFFFF" d="M 449.5,125.5 C 476.502,125.333 503.502,125.5 530.5,126C 531.816,134.774 531.816,143.607 530.5,152.5C 515.215,153.484 499.882,153.817 484.5,153.5C 484.5,159.167 484.5,164.833 484.5,170.5C 497.837,170.333 511.171,170.5 524.5,171C 525,171.5 525.5,172 526,172.5C 526.812,179.747 526.646,186.914 525.5,194C 511.837,194.5 498.171,194.667 484.5,194.5C 484.667,210.17 484.5,225.837 484,241.5C 483.5,242 483,242.5 482.5,243C 471.59,243.82 460.757,243.653 450,242.5C 449.5,203.501 449.333,164.501 449.5,125.5 Z"/></g>
<g><path style="opacity:0.975" fill="#FFFFFF" d="M 544.5,125.5 C 556.833,125.5 569.167,125.5 581.5,125.5C 581.333,138.171 581.5,150.838 582,163.5C 592,164.833 602,164.833 612,163.5C 612.5,150.838 612.667,138.171 612.5,125.5C 624.833,125.5 637.167,125.5 649.5,125.5C 649.667,164.501 649.5,203.501 649,242.5C 637,243.833 625,243.833 613,242.5C 612.667,226.5 612.333,210.5 612,194.5C 607.08,193.846 602.08,193.512 597,193.5C 591.75,193.53 586.75,194.196 582,195.5C 581.825,211.407 581.325,227.241 580.5,243C 568.591,243.821 556.757,243.654 545,242.5C 544.5,203.501 544.333,164.501 544.5,125.5 Z"/></g>
<g><path style="opacity:0.948" fill="#FFFFFF" d="M 665.5,125.5 C 676.748,125.179 687.915,125.513 699,126.5C 699.167,145.833 699.333,165.167 699.5,184.5C 699.494,204.217 698.827,223.717 697.5,243C 686.59,243.82 675.757,243.653 665,242.5C 664.173,203.429 664.34,164.429 665.5,125.5 Z"/></g>
<g><path style="opacity:0.574" fill="#FFFFFF" d="M 803.5,131.5 C 804.973,132.072 806.307,132.905 807.5,134C 806.215,136.423 804.382,138.256 802,139.5C 800.941,139.37 800.108,138.87 799.5,138C 801.232,136.028 802.565,133.861 803.5,131.5 Z"/></g>
<g><path style="opacity:0.677" fill="#FFFFFF" d="M 215.5,135.5 C 221.42,136.097 224.087,139.43 223.5,145.5C 226.709,146.215 229.709,147.382 232.5,149C 231.601,150.236 230.434,151.07 229,151.5C 226,150.5 223,149.5 220,148.5C 218.374,149.289 216.874,150.289 215.5,151.5C 217.412,153.657 219.079,155.991 220.5,158.5C 220.167,159.5 219.5,160.167 218.5,160.5C 213.49,155.488 208.823,150.155 204.5,144.5C 207.895,141.098 211.562,138.098 215.5,135.5 Z M 215.5,139.5 C 217.384,139.712 218.717,140.712 219.5,142.5C 217.81,145.024 215.643,147.024 213,148.5C 211.833,147.333 210.667,146.167 209.5,145C 211.396,142.932 213.396,141.099 215.5,139.5 Z"/></g>
<g><path style="opacity:0.642" fill="#FFFFFF" d="M 808.5,136.5 C 813.665,138.601 817.998,141.935 821.5,146.5C 821.167,147.5 820.5,148.167 819.5,148.5C 816.488,145.515 813.155,143.349 809.5,142C 808.833,143 808.167,144 807.5,145C 810.28,146.812 812.78,148.979 815,151.5C 815.601,152.965 815.101,153.965 813.5,154.5C 810.391,152.525 807.557,150.192 805,147.5C 803.954,149.09 802.787,150.59 801.5,152C 804.63,154.128 807.463,156.628 810,159.5C 810.601,160.965 810.101,161.965 808.5,162.5C 804.208,159.543 800.208,156.21 796.5,152.5C 800.509,147.137 804.509,141.804 808.5,136.5 Z"/></g>
<g><path style="opacity:0.642" fill="#FFFFFF" d="M 199.5,147.5 C 204.771,150.607 208.937,154.94 212,160.5C 212.307,168.441 208.474,171.941 200.5,171C 196.373,167.038 192.373,162.871 188.5,158.5C 189.348,156.717 190.681,156.217 192.5,157C 195.13,160.632 198.13,163.965 201.5,167C 206.176,167.986 208.342,166.152 208,161.5C 205,157.833 202,154.167 199,150.5C 198.53,149.423 198.697,148.423 199.5,147.5 Z"/></g>
<g><path style="opacity:0.661" fill="#FFFFFF" d="M 823.5,151.5 C 832.669,152.146 836.169,156.813 834,165.5C 832.745,164.789 831.579,163.956 830.5,163C 831.639,157.471 829.306,155.138 823.5,156C 818.483,158.621 816.983,162.455 819,167.5C 821.209,169.706 823.709,170.04 826.5,168.5C 827.5,168.833 828.167,169.5 828.5,170.5C 823.556,174.49 819.056,173.823 815,168.5C 813.044,160.412 815.878,154.745 823.5,151.5 Z"/></g>
<g><path style="opacity:0.645" fill="#FFFFFF" d="M 184.5,161.5 C 185.995,161.415 186.995,162.081 187.5,163.5C 185.016,166.484 182.35,169.318 179.5,172C 180.667,173.167 181.833,174.333 183,175.5C 185.167,173.333 187.333,171.167 189.5,169C 191.074,168.301 192.407,168.635 193.5,170C 190.833,172.667 188.167,175.333 185.5,178C 186.766,179.983 188.432,180.983 190.5,181C 192.5,179 194.5,177 196.5,175C 198.319,174.217 199.652,174.717 200.5,176.5C 196.542,179.957 192.708,183.623 189,187.5C 183.985,182.652 179.152,177.652 174.5,172.5C 177.855,168.813 181.189,165.147 184.5,161.5 Z"/></g>
<g><path style="opacity:0.686" fill="#FFFFFF" d="M 836.5,166.5 C 846.988,165.487 851.488,170.154 850,180.5C 846.96,186.603 842.126,188.769 835.5,187C 829.975,184.081 828.142,179.581 830,173.5C 831.694,170.642 833.861,168.309 836.5,166.5 Z M 839.5,169.5 C 846.009,170.207 848.176,173.54 846,179.5C 840.579,186.463 836.079,185.963 832.5,178C 833.959,174.381 836.293,171.547 839.5,169.5 Z"/></g>
<g><path style="opacity:0.607" fill="#FFFFFF" d="M 170.5,175.5 C 176.242,179.735 181.575,184.568 186.5,190C 185.534,191.678 184.201,192.345 182.5,192C 178.333,187.833 174.167,183.667 170,179.5C 169.421,178.072 169.588,176.738 170.5,175.5 Z"/></g>
<g><path style="opacity:0.67" fill="#FFFFFF" d="M 855.5,179.5 C 857.384,179.712 858.717,180.712 859.5,182.5C 857.839,187.473 856.672,192.473 856,197.5C 859.13,195.372 861.963,192.872 864.5,190C 866.319,189.217 867.652,189.717 868.5,191.5C 863.497,196.336 858.33,201.003 853,205.5C 851.268,205.266 850.434,204.266 850.5,202.5C 852.008,197.145 853.175,191.812 854,186.5C 851.167,189.333 848.333,192.167 845.5,195C 843.681,195.783 842.348,195.283 841.5,193.5C 846.494,189.173 851.161,184.506 855.5,179.5 Z"/></g>
<g><path style="opacity:0.666" fill="#FFFFFF" d="M 163.5,183.5 C 170.027,182.71 172.694,185.376 171.5,191.5C 175.154,192.379 178.821,193.213 182.5,194C 181.845,195.487 180.845,196.653 179.5,197.5C 176.687,196.781 173.854,196.114 171,195.5C 168.435,196.378 167.101,198.044 167,200.5C 168.925,201.88 170.759,203.38 172.5,205C 172.002,206.158 171.169,206.991 170,207.5C 164.15,203.647 158.983,198.98 154.5,193.5C 157.522,190.147 160.522,186.813 163.5,183.5 Z M 164.5,187.5 C 166.635,187.147 167.968,187.98 168.5,190C 167.056,192.449 165.222,194.615 163,196.5C 161.833,195.333 160.667,194.167 159.5,193C 161.373,191.296 163.04,189.463 164.5,187.5 Z"/></g>
<g><path style="opacity:0.639" fill="#FFFFFF" d="M 150.5,197.5 C 151.5,197.5 152.5,197.5 153.5,197.5C 152.072,201.499 149.739,204.999 146.5,208C 147.672,210.055 149.339,210.722 151.5,210C 153.174,206.481 155.841,204.315 159.5,203.5C 158.548,207.396 156.548,210.729 153.5,213.5C 154.694,215.431 156.361,216.264 158.5,216C 160.494,213.173 162.828,210.673 165.5,208.5C 166.5,208.833 167.167,209.5 167.5,210.5C 165.192,213.975 162.692,217.308 160,220.5C 159.163,222.007 157.996,222.507 156.5,222C 151.325,217.657 146.325,213.157 141.5,208.5C 144.747,204.986 147.747,201.32 150.5,197.5 Z"/></g>
<g><path style="opacity:0.667" fill="#FFFFFF" d="M 865.5,198.5 C 876.459,197.288 880.959,201.954 879,212.5C 875.96,218.603 871.126,220.769 864.5,219C 858.975,216.081 857.142,211.581 859,205.5C 860.694,202.642 862.861,200.309 865.5,198.5 Z M 868.5,201.5 C 874.181,202.004 876.681,205.004 876,210.5C 873.877,213.299 871.21,215.299 868,216.5C 864.294,215.626 862.127,213.293 861.5,209.5C 863.169,206.17 865.502,203.503 868.5,201.5 Z"/></g>
<g><path style="opacity:0.654" fill="#FFFFFF" d="M 885.5,212.5 C 888.139,213.706 888.972,215.706 888,218.5C 885.132,221.736 882.632,225.236 880.5,229C 885.217,228.379 889.884,227.212 894.5,225.5C 896.569,225.785 897.902,226.952 898.5,229C 892.833,233.167 887.167,237.333 881.5,241.5C 880.585,240.672 879.919,239.672 879.5,238.5C 890.579,231.006 889.746,229.673 877,234.5C 874.812,233.941 874.146,232.607 875,230.5C 877.51,227.801 879.176,224.801 880,221.5C 877.214,224.35 874.047,226.184 870.5,227C 870.043,226.586 869.709,226.086 869.5,225.5C 874.852,221.143 880.186,216.81 885.5,212.5 Z"/></g>
<g><path style="opacity:0.658" fill="#FFFFFF" d="M 139.5,213.5 C 144.031,213.697 146.697,216.03 147.5,220.5C 146.267,223.735 144.601,226.735 142.5,229.5C 144.5,231.167 146.5,232.833 148.5,234.5C 147.855,235.646 147.022,236.646 146,237.5C 140.356,233.357 134.856,229.024 129.5,224.5C 132.187,220.03 135.521,216.363 139.5,213.5 Z M 139.5,217.5 C 141.384,217.712 142.717,218.712 143.5,220.5C 142.197,222.968 140.697,225.301 139,227.5C 137.5,226 136,224.5 134.5,223C 136.373,221.296 138.04,219.463 139.5,217.5 Z"/></g>
<g><path style="opacity:0.652" fill="#FFFFFF" d="M 125.5,228.5 C 130.82,230.584 135.653,233.584 140,237.5C 142.255,242.226 141.422,246.393 137.5,250C 135.305,251.373 132.971,251.706 130.5,251C 126.247,248.29 122.08,245.457 118,242.5C 117.388,240.763 118.054,239.763 120,239.5C 124.069,242.563 128.402,245.23 133,247.5C 136.51,246.339 137.844,244.006 137,240.5C 133.117,236.95 128.951,233.783 124.5,231C 125.252,230.329 125.586,229.496 125.5,228.5 Z"/></g>
<g><path style="opacity:0.63" fill="#FFFFFF" d="M 899.5,232.5 C 902.275,232.834 902.941,234.167 901.5,236.5C 896.167,240.167 890.833,243.833 885.5,247.5C 884.713,246.758 884.047,245.925 883.5,245C 889.02,240.97 894.353,236.803 899.5,232.5 Z"/></g>
<g><path style="opacity:0.663" fill="#FFFFFF" d="M 903.5,239.5 C 904.675,239.281 905.675,239.614 906.5,240.5C 909.083,243.997 911.416,247.664 913.5,251.5C 912.965,253.101 911.965,253.601 910.5,253C 908.623,250.079 906.623,247.246 904.5,244.5C 902.998,245.083 901.665,245.916 900.5,247C 902.5,250 904.5,253 906.5,256C 905.289,257.578 903.955,257.745 902.5,256.5C 901.14,253.772 899.307,251.439 897,249.5C 895.51,250.317 894.01,251.15 892.5,252C 895.08,255.158 897.413,258.492 899.5,262C 898.892,262.87 898.059,263.37 897,263.5C 893.396,259.889 890.563,255.723 888.5,251C 893.538,247.156 898.538,243.322 903.5,239.5 Z"/></g>
<g><path style="opacity:0.653" fill="#FFFFFF" d="M 114.5,247.5 C 116.655,247.372 118.655,247.872 120.5,249C 118.225,250.858 115.725,252.358 113,253.5C 112.506,255.134 112.34,256.801 112.5,258.5C 113.552,258.649 114.552,258.483 115.5,258C 118.665,253.25 122.998,251.583 128.5,253C 131.692,258.501 130.692,263.167 125.5,267C 122.773,267.818 120.106,267.652 117.5,266.5C 118.076,263.876 119.41,263.209 121.5,264.5C 126.656,262.659 127.656,259.659 124.5,255.5C 122.35,257.149 120.35,258.982 118.5,261C 111.243,263.746 108.077,261.246 109,253.5C 110.36,250.977 112.193,248.977 114.5,247.5 Z"/></g>
<g><path style="opacity:0.958" fill="#FFFFFF" d="M 295.5,266.5 C 308.779,266.186 321.112,269.353 332.5,276C 341.785,283.684 345.452,293.517 343.5,305.5C 333.494,305.666 323.494,305.5 313.5,305C 312.217,292.038 305.55,287.704 293.5,292C 288.894,298.481 290.227,303.481 297.5,307C 310.708,312.955 323.708,319.289 336.5,326C 347.422,333.35 351.589,343.517 349,356.5C 345.094,375.064 333.594,385.231 314.5,387C 305.5,387.667 296.5,387.667 287.5,387C 264.143,382.475 252.81,368.308 253.5,344.5C 263.855,344.168 274.188,344.501 284.5,345.5C 287.953,357.148 295.62,362.648 307.5,362C 314.774,360.283 317.607,355.783 316,348.5C 314.878,346.376 313.378,344.543 311.5,343C 297.167,337.333 282.833,331.667 268.5,326C 254.073,314.453 250.907,300.286 259,283.5C 263.316,277.86 268.816,273.694 275.5,271C 282.145,268.774 288.811,267.274 295.5,266.5 Z"/></g>
<g><path style="opacity:0.957" fill="#FFFFFF" d="M 650.5,266.5 C 678.169,266.333 705.835,266.5 733.5,267C 734.485,276.417 734.818,285.917 734.5,295.5C 717.83,295.333 701.163,295.5 684.5,296C 683.531,300.737 683.197,305.57 683.5,310.5C 698.837,310.333 714.17,310.5 729.5,311C 730,311.5 730.5,312 731,312.5C 731.814,320.413 731.647,328.246 730.5,336C 714.837,336.5 699.17,336.667 683.5,336.5C 683.5,343.167 683.5,349.833 683.5,356.5C 700.411,356.175 717.244,356.508 734,357.5C 734.818,367.078 734.651,376.578 733.5,386C 705.595,386.828 677.761,386.661 650,385.5C 649.173,345.762 649.34,306.096 650.5,266.5 Z"/></g>
<g><path style="opacity:0.956" fill="#FFFFFF" d="M 791.5,266.5 C 803.437,266.387 814.77,268.887 825.5,274C 836.725,281.446 841.392,291.779 839.5,305C 829.483,305.832 819.483,305.666 809.5,304.5C 808.664,294.49 803.331,289.657 793.5,290C 785.818,294.668 785.152,300.001 791.5,306C 805.536,313.339 819.536,320.673 833.5,328C 844.184,335.038 848.018,344.871 845,357.5C 839.859,375.181 828.025,385.015 809.5,387C 801.167,387.667 792.833,387.667 784.5,387C 760.503,383.022 749.17,369.022 750.5,345C 760.517,344.168 770.517,344.334 780.5,345.5C 782.929,353.425 787.929,358.925 795.5,362C 802.561,363.54 808.061,361.373 812,355.5C 813.466,350.265 811.966,346.099 807.5,343C 793.923,337.474 780.257,332.14 766.5,327C 751.869,317.445 747.369,304.278 753,287.5C 757.278,279.889 763.445,274.389 771.5,271C 778.145,268.774 784.811,267.274 791.5,266.5 Z"/></g>
<g><path style="opacity:0.662" fill="#FFFFFF" d="M 100.5,267.5 C 101.643,267.908 102.643,268.575 103.5,269.5C 102.627,271.413 101.627,273.247 100.5,275C 105.167,277.667 109.833,280.333 114.5,283C 115.674,285.829 114.674,286.829 111.5,286C 107.25,283.626 103.084,281.126 99,278.5C 97.9164,279.665 97.0831,280.998 96.5,282.5C 95.1667,283.833 93.8333,283.833 92.5,282.5C 95.1953,277.483 97.862,272.483 100.5,267.5 Z"/></g>
<g><path style="opacity:0.962" fill="#FFFFFF" d="M 472.5,267.5 C 485.413,267.178 498.246,267.511 511,268.5C 524.364,306.925 537.531,345.425 550.5,384C 550.355,384.772 550.022,385.439 549.5,386C 537.167,386.667 524.833,386.667 512.5,386C 509.953,378.988 507.787,371.822 506,364.5C 497.333,363.167 488.667,363.167 480,364.5C 477.932,371.536 475.766,378.536 473.5,385.5C 460.604,386.821 447.771,386.821 435,385.5C 446.967,346.094 459.467,306.761 472.5,267.5 Z M 492.5,302.5 C 496.924,314.513 500.591,326.846 503.5,339.5C 496.8,339.83 490.134,339.497 483.5,338.5C 486.816,326.571 489.816,314.571 492.5,302.5 Z"/></g>
<g><path style="opacity:0.949" fill="#FFFFFF" d="M 202.5,268.5 C 213.748,268.179 224.915,268.513 236,269.5C 236.83,308.405 236.663,347.238 235.5,386C 230,386.167 224.5,386.333 219,386.5C 213.089,386.475 207.422,385.808 202,384.5C 201.179,345.792 201.346,307.125 202.5,268.5 Z"/></g>
<g><path style="opacity:0.958" fill="#FFFFFF" d="M 362.5,268.5 C 389.502,268.333 416.502,268.5 443.5,269C 444.833,278 444.833,287 443.5,296C 427.837,296.5 412.17,296.667 396.5,296.5C 396.192,302.425 396.525,308.259 397.5,314C 411.163,314.5 424.829,314.667 438.5,314.5C 438.815,322.42 438.482,330.253 437.5,338C 423.837,338.5 410.171,338.667 396.5,338.5C 396.5,354.5 396.5,370.5 396.5,386.5C 384.746,387.132 373.246,386.465 362,384.5C 361.179,345.792 361.346,307.125 362.5,268.5 Z"/></g>
<g><path style="opacity:0.952" fill="#FFFFFF" d="M 541.5,268.5 C 573.168,268.333 604.835,268.5 636.5,269C 637.801,273.414 638.468,278.081 638.5,283C 638.487,287.747 638.153,292.414 637.5,297C 627.506,297.5 617.506,297.666 607.5,297.5C 607.5,326.833 607.5,356.167 607.5,385.5C 595.586,385.821 583.753,385.488 572,384.5C 571.5,355.502 571.333,326.502 571.5,297.5C 561.161,297.666 550.828,297.5 540.5,297C 539.847,292.414 539.513,287.747 539.5,283C 539.557,277.918 540.224,273.085 541.5,268.5 Z"/></g>
<g><path style="opacity:0.562" fill="#FFFFFF" d="M 911.5,268.5 C 914.49,269.571 916.49,271.737 917.5,275C 916.991,276.169 916.158,277.002 915,277.5C 912.566,274.691 911.4,271.691 911.5,268.5 Z"/></g>
<g><path style="opacity:0.663" fill="#FFFFFF" d="M 929.5,282.5 C 931.359,282.461 932.692,283.294 933.5,285C 929.759,287.732 925.759,290.066 921.5,292C 917.7,295.945 918.533,298.778 924,300.5C 928.29,298.523 932.624,296.523 937,294.5C 938.28,294.613 939.113,295.28 939.5,296.5C 934.004,301.253 927.67,303.753 920.5,304C 916.079,300.975 914.579,296.808 916,291.5C 920.479,288.353 924.979,285.353 929.5,282.5 Z"/></g>
<g><path style="opacity:0.666" fill="#FFFFFF" d="M 90.5,285.5 C 96.7832,287.058 102.283,290.058 107,294.5C 108.62,302.527 105.454,306.694 97.5,307C 92.8017,305.234 88.3017,303.067 84,300.5C 83.3877,298.763 84.0543,297.763 86,297.5C 90.4461,299.64 94.9461,301.64 99.5,303.5C 105.426,300.84 105.76,297.673 100.5,294C 97.1667,292.333 93.8333,290.667 90.5,289C 89.3157,287.855 89.3157,286.688 90.5,285.5 Z"/></g>
<g><path style="opacity:0.685" fill="#FFFFFF" d="M 938.5,300.5 C 940.635,300.147 941.968,300.98 942.5,303C 940.093,307.813 937.427,312.48 934.5,317C 938.39,315.984 942.224,314.484 946,312.5C 947.28,312.613 948.113,313.28 948.5,314.5C 942.413,317.96 936.246,321.294 930,324.5C 929.044,323.421 928.211,322.255 927.5,321C 930.724,316.381 933.224,311.547 935,306.5C 931.333,308.5 927.667,310.5 924,312.5C 922.635,311.407 922.301,310.074 923,308.5C 928.432,306.202 933.598,303.535 938.5,300.5 Z"/></g>
<g><path style="opacity:0.648" fill="#FFFFFF" d="M 81.5,302.5 C 83.0898,302.628 84.4231,303.295 85.5,304.5C 84.627,306.413 83.627,308.247 82.5,310C 87.5,312.167 92.5,314.333 97.5,316.5C 98.731,317.651 98.731,318.817 97.5,320C 91.9377,318.73 86.6043,316.563 81.5,313.5C 80.1936,314.912 79.3603,316.579 79,318.5C 77.5354,319.369 76.3687,318.869 75.5,317C 77.9332,312.306 79.9332,307.473 81.5,302.5 Z"/></g>
<g><path style="opacity:0.644" fill="#FFFFFF" d="M 949.5,319.5 C 951.088,320.635 951.421,321.969 950.5,323.5C 944.243,326.829 937.91,329.162 931.5,330.5C 930.41,329.391 930.41,328.391 931.5,327.5C 937.685,325.004 943.685,322.337 949.5,319.5 Z"/></g>
<g><path style="opacity:0.652" fill="#FFFFFF" d="M 73.5,320.5 C 80.4768,322.992 87.1435,325.992 93.5,329.5C 93,330.5 92.5,331.5 92,332.5C 85.6824,329.282 79.1824,326.448 72.5,324C 73.3366,322.989 73.67,321.822 73.5,320.5 Z"/></g>
<g><path style="opacity:0.658" fill="#FFFFFF" d="M 71.5,326.5 C 72.9953,326.415 73.9953,327.081 74.5,328.5C 73.8333,330.167 73.1667,331.833 72.5,333.5C 77.6267,336.097 82.9601,338.097 88.5,339.5C 88.5,340.833 88.5,342.167 88.5,343.5C 82.5664,342.3 76.8997,340.3 71.5,337.5C 70.5726,339.113 69.7393,340.779 69,342.5C 67.4555,343.821 66.2888,343.488 65.5,341.5C 67.5078,336.471 69.5078,331.471 71.5,326.5 Z"/></g>
<g><path style="opacity:0.675" fill="#FFFFFF" d="M 957.5,340.5 C 959.441,342.011 959.941,344.011 959,346.5C 955.434,349.699 951.6,352.533 947.5,355C 952.833,355.333 958.167,355.667 963.5,356C 964.293,357.085 964.96,358.252 965.5,359.5C 958.696,362.435 951.696,364.768 944.5,366.5C 944.33,365.178 944.663,364.011 945.5,363C 949.09,361.47 952.757,360.136 956.5,359C 951.511,358.501 946.511,358.334 941.5,358.5C 941.351,357.448 941.517,356.448 942,355.5C 944.739,352.882 947.573,350.382 950.5,348C 947.319,348.387 944.152,349.22 941,350.5C 939.72,350.387 938.887,349.72 938.5,348.5C 944.737,345.427 951.07,342.76 957.5,340.5 Z"/></g>
<g><path style="opacity:0.657" fill="#FFFFFF" d="M 65.5,346.5 C 67.1667,346.5 68.8333,346.5 70.5,346.5C 70.5,347.833 70.5,349.167 70.5,350.5C 66.7053,349.959 64.7053,351.625 64.5,355.5C 64.5565,356.737 65.0565,357.737 66,358.5C 68.843,355.989 71.343,353.156 73.5,350C 78.8472,347.844 82.1806,349.677 83.5,355.5C 82.9596,362.377 79.293,365.71 72.5,365.5C 72.5,364.167 72.5,362.833 72.5,361.5C 77.8128,361.356 79.9794,358.69 79,353.5C 78.2825,352.549 77.4491,352.383 76.5,353C 73.931,355.479 71.5977,358.146 69.5,361C 64.3501,362.683 61.3501,360.85 60.5,355.5C 61.154,353.885 61.654,352.218 62,350.5C 63.3756,349.295 64.5423,347.962 65.5,346.5 Z"/></g>
<g><path style="opacity:0.686" fill="#FFFFFF" d="M 57.5,363.5 C 64.731,365.244 71.731,367.577 78.5,370.5C 78.1345,371.902 77.3012,372.902 76,373.5C 71.2274,375.202 66.3941,376.702 61.5,378C 65.4167,379.585 69.4167,381.085 73.5,382.5C 74.7112,383.274 74.7112,384.107 73.5,385C 66.8227,383.837 60.1561,382.337 53.5,380.5C 53.238,379.022 53.5713,377.689 54.5,376.5C 59.7143,375.152 64.7143,373.319 69.5,371C 65.8586,369.731 62.1919,368.564 58.5,367.5C 57.5713,366.311 57.238,364.978 57.5,363.5 Z"/></g>
<g><path style="opacity:0.676" fill="#FFFFFF" d="M 962.5,364.5 C 964.144,364.286 965.644,364.62 967,365.5C 968.485,370.108 969.652,374.774 970.5,379.5C 969.325,379.719 968.325,379.386 967.5,378.5C 966.36,375.077 965.026,371.744 963.5,368.5C 962.069,368.977 960.736,369.643 959.5,370.5C 960.346,373.548 961.346,376.548 962.5,379.5C 961.965,381.101 960.965,381.601 959.5,381C 957.998,377.995 956.998,374.829 956.5,371.5C 954.173,371.247 952.173,371.914 950.5,373.5C 951.699,376.432 952.699,379.432 953.5,382.5C 953.547,384 952.881,385 951.5,385.5C 949.038,380.446 947.371,375.113 946.5,369.5C 952.12,368.434 957.453,366.767 962.5,364.5 Z"/></g>
<g><path style="opacity:0.666" fill="#FFFFFF" d="M 968.5,381.5 C 969.822,381.33 970.989,381.663 972,382.5C 973.487,387.779 974.653,393.112 975.5,398.5C 972.221,397.969 970.887,395.969 971.5,392.5C 965.956,393.594 960.456,394.927 955,396.5C 953.699,395.902 952.865,394.902 952.5,393.5C 957.733,391.691 963.066,390.191 968.5,389C 969.45,386.568 969.45,384.068 968.5,381.5 Z"/></g>
<g><path style="opacity:0.674" fill="#FFFFFF" d="M 51.5,384.5 C 57.9318,385.524 64.2651,387.024 70.5,389C 71.9733,389.71 72.6399,390.876 72.5,392.5C 65.7059,391.635 59.0392,390.135 52.5,388C 51.6634,386.989 51.33,385.822 51.5,384.5 Z"/></g>
<g><path style="opacity:0.682" fill="#FFFFFF" d="M 973.5,400.5 C 975.124,400.36 976.29,401.027 977,402.5C 977.996,406.816 978.83,411.149 979.5,415.5C 972.917,413.717 966.584,411.05 960.5,407.5C 960.331,411.018 960.997,414.685 962.5,418.5C 961.311,419.429 959.978,419.762 958.5,419.5C 957.331,414.167 956.498,408.834 956,403.5C 957.049,402.483 958.216,402.316 959.5,403C 964.412,405.372 969.245,407.872 974,410.5C 974.172,407.174 974.005,403.841 973.5,400.5 Z"/></g>
<g><path style="opacity:0.981" fill="#FFFFFF" d="M 576.5,408.5 C 577.274,407.853 578.274,407.52 579.5,407.5C 594.172,410.337 607.505,416.171 619.5,425C 633.365,436.309 634.032,448.309 621.5,461C 618.318,463.091 614.985,464.925 611.5,466.5C 615.126,472.922 619.126,479.089 623.5,485C 635.404,486.994 647.404,488.327 659.5,489C 664.563,489.219 665.563,491.219 662.5,495C 651.458,499.792 640.125,503.792 628.5,507C 632.679,516.237 633.846,525.737 632,535.5C 620.432,549.487 608.266,549.987 595.5,537C 594.552,536.517 593.552,536.351 592.5,536.5C 589.253,562.52 592.086,587.853 601,612.5C 610.381,632.934 621.048,652.6 633,671.5C 636.78,677.282 641.78,681.616 648,684.5C 651.218,682.42 653.218,679.42 654,675.5C 653.383,666.746 656.217,659.58 662.5,654C 701.768,624.246 746.102,610.579 795.5,613C 817.463,617.886 834.963,629.386 848,647.5C 852.796,657.413 853.796,667.747 851,678.5C 848.823,688.874 846.49,699.207 844,709.5C 836.713,691.218 825.88,675.384 811.5,662C 798.142,652.281 783.476,649.615 767.5,654C 761.672,655.943 756.005,658.276 750.5,661C 790.311,665.406 807.478,687.572 802,727.5C 800.421,741.569 796.421,754.903 790,767.5C 789.059,769.061 787.892,770.395 786.5,771.5C 784.51,761.582 783.01,751.582 782,741.5C 777.723,722.347 765.723,712.347 746,711.5C 717.151,715.221 707.818,730.554 718,757.5C 723.314,763.387 729.98,766.387 738,766.5C 748.293,765.57 758.126,762.903 767.5,758.5C 768.72,758.887 769.387,759.72 769.5,761C 745.772,798.559 712.439,823.559 669.5,836C 670.854,839.209 670.687,842.376 669,845.5C 657.667,855.5 646.333,865.5 635,875.5C 634.251,876.635 634.417,877.635 635.5,878.5C 646.893,881.065 654.726,887.732 659,898.5C 659.829,903.864 659.663,909.198 658.5,914.5C 653.999,912.084 649.666,909.417 645.5,906.5C 642.4,910.356 639.067,914.023 635.5,917.5C 631.531,913.572 628.031,909.239 625,904.5C 621.5,908.833 618,913.167 614.5,917.5C 611.68,913.203 608.847,908.87 606,904.5C 600.894,907.972 596.06,911.806 591.5,916C 586.782,914.36 582.615,911.527 579,907.5C 574.152,910.926 569.485,914.592 565,918.5C 562.899,915.288 560.566,912.288 558,909.5C 552.938,911.278 548.438,913.945 544.5,917.5C 540.48,914.314 536.98,910.647 534,906.5C 531.155,910.205 528.322,913.872 525.5,917.5C 522.333,913.167 519.167,908.833 516,904.5C 512.703,909.628 508.87,914.294 504.5,918.5C 502.076,913.984 499.91,909.317 498,904.5C 494.38,909.789 490.38,914.789 486,919.5C 483.173,903.539 480.673,887.539 478.5,871.5C 486.5,871.5 494.5,871.5 502.5,871.5C 502.5,866.5 502.5,861.5 502.5,856.5C 498.445,856.824 494.445,856.491 490.5,855.5C 489.021,850.919 487.855,846.252 487,841.5C 482.661,851.511 477.828,861.178 472.5,870.5C 466.805,862.637 461.305,854.637 456,846.5C 450.401,855.376 444.568,864.043 438.5,872.5C 433.138,864.97 427.971,857.303 423,849.5C 422.501,855.491 422.334,861.491 422.5,867.5C 414.833,867.5 407.167,867.5 399.5,867.5C 399.5,871.167 399.5,874.833 399.5,878.5C 408.833,878.5 418.167,878.5 427.5,878.5C 424.829,891.519 421.996,904.519 419,917.5C 418.333,918.833 417.667,918.833 417,917.5C 414.083,913.334 411.416,909.001 409,904.5C 405.833,910.167 402.667,915.833 399.5,921.5C 395.271,916.722 391.271,911.722 387.5,906.5C 384.486,911.203 381.486,915.87 378.5,920.5C 374.833,916.5 371.167,912.5 367.5,908.5C 363.979,911.187 360.979,914.353 358.5,918C 357.833,918.667 357.167,918.667 356.5,918C 352.777,904.942 349.444,891.776 346.5,878.5C 357.167,878.5 367.833,878.5 378.5,878.5C 378.5,875.167 378.5,871.833 378.5,868.5C 373.167,868.5 367.833,868.5 362.5,868.5C 367.13,852.443 372.463,836.61 378.5,821C 318.795,831.806 296.128,807.639 310.5,748.5C 322.826,774.998 342.159,781.498 368.5,768C 377,763.5 383.5,757 388,748.5C 399.952,726.316 405.952,702.649 406,677.5C 390.891,711.443 366.724,736.777 333.5,753.5C 332.749,752.624 332.249,751.624 332,750.5C 331.833,745.833 331.667,741.167 331.5,736.5C 332.182,720.782 333.015,705.116 334,689.5C 317.536,711.648 295.702,724.981 268.5,729.5C 268.621,706.934 275.788,686.934 290,669.5C 290.688,668.668 290.521,668.002 289.5,667.5C 263.106,682.379 234.773,688.713 204.5,686.5C 207.898,677.921 212.398,669.921 218,662.5C 233.874,643.282 252.707,627.782 274.5,616C 297.468,603.399 321.468,593.233 346.5,585.5C 348.577,585.692 350.577,586.192 352.5,587C 359.206,593.374 366.206,599.374 373.5,605C 381.619,607.854 389.953,608.854 398.5,608C 394.61,605.404 391.777,601.904 390,597.5C 387.378,590.356 386.044,583.023 386,575.5C 391.174,578.558 396.674,580.391 402.5,581C 396.866,575.232 393.199,568.398 391.5,560.5C 395.514,560.666 399.514,560.499 403.5,560C 394.492,552.13 390.492,542.297 391.5,530.5C 395.159,532.331 398.992,533.664 403,534.5C 406.282,533.885 408.282,531.885 409,528.5C 409.705,515.751 411.039,503.084 413,490.5C 419.62,472.088 432.787,462.255 452.5,461C 468.288,459.767 483.621,461.767 498.5,467C 502.325,470.624 504.325,475.124 504.5,480.5C 517.385,482.517 529.218,487.184 540,494.5C 541.199,491.495 542.032,488.329 542.5,485C 542.265,484.127 541.931,483.293 541.5,482.5C 537.384,482.113 533.051,481.613 528.5,481C 525.624,480.562 522.957,479.562 520.5,478C 507.204,462.369 493.538,447.036 479.5,432C 485.604,432.086 491.604,433.086 497.5,435C 507.144,438.439 516.811,441.439 526.5,444C 519.167,438.667 511.833,433.333 504.5,428C 509.446,426.905 514.446,426.071 519.5,425.5C 530.927,426.492 542.26,427.659 553.5,429C 549.141,423.978 544.141,419.645 538.5,416C 559.585,409.315 577.752,414.148 593,430.5C 593.758,426.671 592.758,423.338 590,420.5C 585.926,415.921 581.426,411.921 576.5,408.5 Z M 585.5,476.5 C 596.549,478.598 599.549,484.598 594.5,494.5C 588.772,499.778 583.272,499.444 578,493.5C 574.546,485.082 577.046,479.415 585.5,476.5 Z M 466.5,486.5 C 471.5,486.5 476.5,486.5 481.5,486.5C 481.116,489.769 479.782,492.603 477.5,495C 471.422,498.527 465.088,499.194 458.5,497C 456.348,494.576 455.015,491.743 454.5,488.5C 458.647,487.833 462.647,487.166 466.5,486.5 Z M 515.5,509.5 C 523.47,509.153 531.303,509.82 539,511.5C 544.025,535.829 542.691,559.829 535,583.5C 531.049,595.784 523.215,604.618 511.5,610C 503.493,612.472 495.826,611.805 488.5,608C 492.104,605.292 494.604,601.792 496,597.5C 498.311,588.906 499.145,580.239 498.5,571.5C 495.632,573.532 492.632,575.365 489.5,577C 488.5,577.667 487.5,577.667 486.5,577C 494.784,569.948 498.117,561.115 496.5,550.5C 485.101,555.955 480.268,552.289 482,539.5C 484.316,526.685 491.483,517.852 503.5,513C 507.623,511.808 511.623,510.641 515.5,509.5 Z M 531.5,808.5 C 550.215,824.527 571.548,835.86 595.5,842.5C 587.874,866.289 572.708,883.289 550,893.5C 549.5,886.174 549.334,878.841 549.5,871.5C 540.5,871.5 531.5,871.5 522.5,871.5C 522.5,866.5 522.5,861.5 522.5,856.5C 528.121,855.646 533.788,855.313 539.5,855.5C 537.589,839.699 534.922,824.032 531.5,808.5 Z M 629.5,845.5 C 630.043,845.56 630.376,845.893 630.5,846.5C 626.791,856.921 621.291,866.255 614,874.5C 607.636,881.199 600.969,887.532 594,893.5C 592.61,886.839 592.444,880.173 593.5,873.5C 606.401,865.258 618.401,855.925 629.5,845.5 Z"/></g>
<g><path style="opacity:0.879" fill="#FFFFFF" d="M 50.5,413.5 C 60.1569,412.658 63.9902,416.991 62,426.5C 58.6923,430.327 54.5256,431.494 49.5,430C 43.9534,424.032 44.2868,418.532 50.5,413.5 Z"/></g>
<g><path style="opacity:0.969" fill="#FFFFFF" d="M 343.5,518.5 C 338.305,518.179 333.305,518.513 328.5,519.5C 290.66,520.584 252.827,521.917 215,523.5C 186.302,524.561 159.135,518.728 133.5,506C 110.42,493.426 96.4195,474.259 91.5,448.5C 92.0463,446.865 92.3796,445.199 92.5,443.5C 154.516,470.97 219.516,483.97 287.5,482.5C 310.718,482.684 333.884,481.684 357,479.5C 373.822,478.319 380.822,485.986 378,502.5C 376.287,506.873 373.787,510.707 370.5,514C 368.608,514.973 366.608,515.64 364.5,516C 357.331,516.675 350.331,517.509 343.5,518.5 Z"/></g>
<g><path style="opacity:0.879" fill="#FFFFFF" d="M 970.5,449.5 C 980.212,448.709 984.045,453.042 982,462.5C 979.045,466.277 975.212,467.443 970.5,466C 965.931,463.459 964.431,459.625 966,454.5C 967.025,452.313 968.525,450.646 970.5,449.5 Z"/></g>
<g><path style="opacity:0.987" fill="#012395" d="M 888.5,563.5 C 873.7,548.572 856.033,538.405 835.5,533C 794.068,522.67 752.735,523.004 711.5,534C 691.052,540.891 672.052,550.391 654.5,562.5C 661.013,526.482 682.013,503.648 717.5,494C 723.752,492.283 730.086,490.95 736.5,490C 762.168,488.391 787.835,486.725 813.5,485C 847.44,482.183 879.44,472.85 909.5,457C 913.167,454.5 916.833,452 920.5,449.5C 921.665,452.535 921.498,455.535 920,458.5C 913.028,472.141 903.195,483.308 890.5,492C 881.995,498.089 872.995,503.422 863.5,508C 880.164,522.822 888.497,541.322 888.5,563.5 Z"/></g>
<g><path style="opacity:0.708" fill="#FFFFFF" d="M 37.5,453.5 C 45.2408,453.926 52.9075,454.926 60.5,456.5C 60.9565,471.425 54.2898,476.259 40.5,471C 38.1966,468.836 36.8632,466.169 36.5,463C 37.4505,459.943 37.7839,456.777 37.5,453.5 Z M 41.5,457.5 C 46.5699,457.925 51.5699,458.759 56.5,460C 55.8509,468.496 51.5175,471.162 43.5,468C 40.3804,465.006 39.7137,461.506 41.5,457.5 Z"/></g>
<g><path style="opacity:0.712" fill="#FFFFFF" d="M 35.5,474.5 C 42.8406,475.116 50.174,475.783 57.5,476.5C 57.3135,481.845 56.9801,487.178 56.5,492.5C 55.5,492.5 54.5,492.5 53.5,492.5C 53.5,488.167 53.5,483.833 53.5,479.5C 51.8333,479.5 50.1667,479.5 48.5,479.5C 47.0814,495.293 45.4147,495.293 43.5,479.5C 41.9291,478.691 40.2624,478.357 38.5,478.5C 38.6653,482.182 38.4986,485.848 38,489.5C 37.2904,490.973 36.1238,491.64 34.5,491.5C 34.6349,485.819 34.9682,480.152 35.5,474.5 Z"/></g>
<g><path style="opacity:0.698" fill="#FFFFFF" d="M 39.5,494.5 C 45.1956,494.447 50.8623,494.78 56.5,495.5C 56.5,496.5 56.5,497.5 56.5,498.5C 50.8236,498.334 45.1569,498.501 39.5,499C 35.9359,502.145 35.9359,505.145 39.5,508C 44.8229,508.499 50.1563,508.666 55.5,508.5C 55.5,509.833 55.5,511.167 55.5,512.5C 50.1563,512.666 44.8229,512.499 39.5,512C 37.6711,511.727 36.1711,510.893 35,509.5C 31.9237,502.851 33.4237,497.851 39.5,494.5 Z"/></g>
<g><path style="opacity:0.675" fill="#FFFFFF" d="M 976.5,496.5 C 982.253,496.42 985.253,499.253 985.5,505C 985.871,510.792 983.204,513.958 977.5,514.5C 978.83,511.288 980.496,508.121 982.5,505C 982.074,501.202 980.241,500.036 977,501.5C 976.176,505.656 974.676,509.489 972.5,513C 966.173,515.011 962.839,512.678 962.5,506C 962.514,501.918 964.348,499.085 968,497.5C 970.02,498.032 970.853,499.365 970.5,501.5C 969.178,501.33 968.011,501.663 967,502.5C 965.965,505.649 966.632,508.316 969,510.5C 969.667,509.833 970.333,509.167 971,508.5C 971.692,505.064 972.692,501.73 974,498.5C 974.995,497.934 975.828,497.267 976.5,496.5 Z"/></g>
<g><path style="opacity:0.875" fill="#FFFFFF" d="M 52.5,514.5 C 53.5,514.5 54.5,514.5 55.5,514.5C 55.5,520.167 55.5,525.833 55.5,531.5C 54.5,531.5 53.5,531.5 52.5,531.5C 52.5,529.167 52.5,526.833 52.5,524.5C 46.1667,524.5 39.8333,524.5 33.5,524.5C 33.5,523.5 33.5,522.5 33.5,521.5C 39.8333,521.5 46.1667,521.5 52.5,521.5C 52.5,519.167 52.5,516.833 52.5,514.5 Z"/></g>
<g><path style="opacity:0.838" fill="#FFFFFF" d="M 963.5,516.5 C 964.5,516.5 965.5,516.5 966.5,516.5C 966.5,520.833 966.5,525.167 966.5,529.5C 968.5,529.5 970.5,529.5 972.5,529.5C 972.5,525.5 972.5,521.5 972.5,517.5C 973.5,517.5 974.5,517.5 975.5,517.5C 975.5,521.5 975.5,525.5 975.5,529.5C 977.604,529.799 979.604,529.466 981.5,528.5C 982.433,524.571 982.766,520.571 982.5,516.5C 983.5,516.5 984.5,516.5 985.5,516.5C 985.5,521.833 985.5,527.167 985.5,532.5C 978.167,532.5 970.833,532.5 963.5,532.5C 963.5,527.167 963.5,521.833 963.5,516.5 Z"/></g>
<g><path style="opacity:0.974" fill="#dd0000" d="M 328.5,519.5 C 333.695,519.821 338.695,519.487 343.5,518.5C 351.178,518.152 358.845,517.985 366.5,518C 357.061,528.621 349.394,540.455 343.5,553.5C 292.629,563.276 241.296,568.609 189.5,569.5C 174.431,569.777 159.431,568.943 144.5,567C 136.46,565.875 128.793,563.542 121.5,560C 126.486,555.839 131.819,552.173 137.5,549C 154.441,540.361 172.108,533.694 190.5,529C 202.097,527.074 213.764,525.74 225.5,525C 260.005,523.436 294.339,521.603 328.5,519.5 Z"/></g>
<g><path style="opacity:0.994" fill="#fefdfe" d="M 888.5,563.5 C 883.254,574.333 877.254,584.666 870.5,594.5C 847.915,570.401 819.915,558.734 786.5,559.5C 750.705,559.699 717.038,568.199 685.5,585C 674.611,591.271 663.944,597.771 653.5,604.5C 653.667,590.495 654,576.495 654.5,562.5C 672.052,550.391 691.052,540.891 711.5,534C 752.735,523.004 794.068,522.67 835.5,533C 856.033,538.405 873.7,548.572 888.5,563.5 Z"/></g>
<g><path style="opacity:0.679" fill="#FFFFFF" d="M 38.5,532.5 C 39.5,532.5 40.5,532.5 41.5,532.5C 41.627,535.245 40.4603,537.245 38,538.5C 37.231,541.099 37.3977,543.599 38.5,546C 39.7839,546.684 40.9505,546.517 42,545.5C 43.1218,541.507 44.6218,537.674 46.5,534C 50.7806,532.542 53.9473,533.708 56,537.5C 57.6928,543.792 55.5261,547.792 49.5,549.5C 50.5034,546.666 51.5034,543.833 52.5,541C 52.1682,535.905 50.6682,535.405 48,539.5C 47.6217,543.558 46.1217,547.058 43.5,550C 35.3469,550.502 32.1802,546.669 34,538.5C 34.5985,535.746 36.0985,533.746 38.5,532.5 Z"/></g>
<g><path style="opacity:0.721" fill="#FFFFFF" d="M 968.5,535.5 C 982.891,533.884 988.224,540.217 984.5,554.5C 977.178,553.962 969.845,553.629 962.5,553.5C 962.334,549.486 962.501,545.486 963,541.5C 964.36,538.977 966.193,536.977 968.5,535.5 Z M 969.5,539.5 C 978.626,537.715 982.626,541.381 981.5,550.5C 976.043,550.755 970.71,550.088 965.5,548.5C 965.854,544.945 967.188,541.945 969.5,539.5 Z"/></g>
<g><path style="opacity:0.684" fill="#FFFFFF" d="M 44.5,551.5 C 56.2933,551.749 60.1267,557.416 56,568.5C 53.6666,571.151 51.8332,570.984 50.5,568C 56.0709,563.518 55.7376,559.518 49.5,556C 42.26,554.591 38.76,557.425 39,564.5C 40.1739,566.671 42.0072,567.671 44.5,567.5C 44.0857,571.7 42.0857,572.533 38.5,570C 34.452,565.457 33.952,560.623 37,555.5C 39.2552,553.501 41.7552,552.168 44.5,551.5 Z"/></g>
<g><path style="opacity:0.979" fill="#ffce00" d="M 341.5,555.5 C 341.865,564.203 343.199,572.87 345.5,581.5C 314.028,596.73 281.361,608.897 247.5,618C 220.383,624.494 192.883,627.994 165,628.5C 160.448,628.161 155.948,627.494 151.5,626.5C 157.25,613.917 166.25,604.417 178.5,598C 204.165,584.889 231.165,575.556 259.5,570C 286.838,564.389 314.172,559.556 341.5,555.5 Z"/></g>
<g><path style="opacity:0.713" fill="#FFFFFF" d="M 961.5,556.5 C 968.515,556.729 975.515,557.229 982.5,558C 983.747,559.494 983.747,560.994 982.5,562.5C 977.992,565.254 973.326,567.754 968.5,570C 972.716,571.204 977.049,571.87 981.5,572C 982.337,573.011 982.67,574.178 982.5,575.5C 975.121,575.229 967.788,574.562 960.5,573.5C 960.238,572.022 960.571,570.689 961.5,569.5C 966.008,566.746 970.674,564.246 975.5,562C 970.989,560.71 966.323,559.877 961.5,559.5C 961.5,558.5 961.5,557.5 961.5,556.5 Z"/></g>
<g><path style="opacity:0.993" fill="#ed2939" d="M 870.5,594.5 C 867.527,603.055 864.86,611.722 862.5,620.5C 840.031,600.127 813.698,592.294 783.5,597C 750.161,602.669 718.494,613.335 688.5,629C 677.004,635.247 665.67,641.747 654.5,648.5C 653.501,633.848 653.167,619.182 653.5,604.5C 663.944,597.771 674.611,591.271 685.5,585C 717.038,568.199 750.705,559.699 786.5,559.5C 819.915,558.734 847.915,570.401 870.5,594.5 Z"/></g>
<g><path style="opacity:0.711" fill="#FFFFFF" d="M 51.5,572.5 C 53.8333,572.5 56.1667,572.5 58.5,572.5C 58.5,573.833 58.5,575.167 58.5,576.5C 55.8333,576.5 53.1667,576.5 50.5,576.5C 50.8333,579.833 51.1667,583.167 51.5,586.5C 54.2492,586.726 56.9159,586.393 59.5,585.5C 60.8304,587.347 60.497,588.847 58.5,590C 51.8233,590.835 45.1566,591.668 38.5,592.5C 38.5,591.167 38.5,589.833 38.5,588.5C 41.9604,588.475 45.2937,587.808 48.5,586.5C 47.7695,583.891 47.2695,581.224 47,578.5C 43.6222,578.132 40.1222,578.132 36.5,578.5C 36.5,577.167 36.5,575.833 36.5,574.5C 41.7312,574.556 46.7312,573.889 51.5,572.5 Z"/></g>
<g><path style="opacity:0.694" fill="#FFFFFF" d="M 977.5,577.5 C 979.199,577.34 980.866,577.506 982.5,578C 981.663,579.011 981.33,580.178 981.5,581.5C 979.139,581.674 976.806,582.007 974.5,582.5C 974.768,585.119 974.435,587.619 973.5,590C 975.249,591.292 977.082,592.458 979,593.5C 978.995,599.205 978.329,604.872 977,610.5C 976.275,611.059 975.442,611.392 974.5,611.5C 967.661,610.434 960.994,608.934 954.5,607C 955.226,605.603 956.393,604.769 958,604.5C 962.9,605.233 967.734,606.233 972.5,607.5C 973.81,603.872 975.476,600.372 977.5,597C 971.5,593.667 965.5,590.333 959.5,587C 958.62,585.644 958.286,584.144 958.5,582.5C 965.061,581.278 971.394,579.611 977.5,577.5 Z M 969.5,583.5 C 971.896,584.828 971.896,586.494 969.5,588.5C 967.833,587.333 966.167,586.167 964.5,585C 966.382,584.802 968.048,584.302 969.5,583.5 Z"/></g>
<g><path style="opacity:0.598" fill="#FFFFFF" d="M 45.5,593.5 C 46.8333,593.5 48.1667,593.5 49.5,593.5C 49.9629,596.482 50.2962,599.482 50.5,602.5C 49.1667,602.5 47.8333,602.5 46.5,602.5C 46.4921,599.455 46.1587,596.455 45.5,593.5 Z"/></g>
<g><path style="opacity:0.672" fill="#FFFFFF" d="M 61.5,601.5 C 62.6491,601.791 63.3158,602.624 63.5,604C 64.1667,607.333 64.8333,610.667 65.5,614C 65.6243,616.737 64.6243,617.571 62.5,616.5C 61.4486,613.243 60.7819,609.91 60.5,606.5C 58.8561,606.286 57.3561,606.62 56,607.5C 55.8281,610.826 55.9947,614.159 56.5,617.5C 55.1779,617.67 54.0113,617.337 53,616.5C 52.433,613.832 51.933,611.166 51.5,608.5C 48.1667,608.833 44.8333,609.167 41.5,609.5C 41.5,608.167 41.5,606.833 41.5,605.5C 48.4107,604.785 55.0773,603.451 61.5,601.5 Z"/></g>
<g><path style="opacity:0.695" fill="#FFFFFF" d="M 956.5,611.5 C 961.598,610.429 964.764,612.429 966,617.5C 969.22,614.919 972.72,613.919 976.5,614.5C 975.96,615.748 975.293,616.915 974.5,618C 971.105,619.115 967.939,620.615 965,622.5C 964.506,624.134 964.34,625.801 964.5,627.5C 967.206,627.575 969.873,627.908 972.5,628.5C 972.5,629.833 972.5,631.167 972.5,632.5C 965.222,631.222 958.055,629.555 951,627.5C 951.345,622.782 952.345,618.115 954,613.5C 954.995,612.934 955.828,612.267 956.5,611.5 Z M 957.5,615.5 C 960.734,615.237 962.068,616.737 961.5,620C 961.282,625.15 958.949,626.484 954.5,624C 955.189,621.05 956.189,618.217 957.5,615.5 Z"/></g>
<g><path style="opacity:0.69" fill="#FFFFFF" d="M 56.5,662.5 C 55.3509,662.209 54.6842,661.376 54.5,660C 55.0427,657.119 56.7094,655.119 59.5,654C 58.4459,651.618 57.7792,649.118 57.5,646.5C 51.6617,647.752 48.6617,645.419 48.5,639.5C 50.0662,636.425 52.2329,633.758 55,631.5C 55.6667,629.833 55.6667,628.167 55,626.5C 52.1635,625.735 49.3302,626.068 46.5,627.5C 45.5853,626.672 44.9186,625.672 44.5,624.5C 51.3493,622.037 58.3493,620.037 65.5,618.5C 67.3294,622.614 68.6627,626.948 69.5,631.5C 67.2874,637.688 63.2874,639.021 57.5,635.5C 55.0163,637.483 52.6829,639.65 50.5,642C 57.8233,642.777 65.1566,643.444 72.5,644C 73.9348,646.267 73.6015,648.267 71.5,650C 66.0176,653.654 61.0176,657.821 56.5,662.5 Z M 60.5,623.5 C 61.8333,623.5 63.1667,623.5 64.5,623.5C 65.1346,626.493 65.3013,629.493 65,632.5C 63.0624,633.86 61.3957,633.527 60,631.5C 59.5779,629.645 59.0779,627.811 58.5,626C 59.0556,624.989 59.7222,624.156 60.5,623.5 Z M 60.5,647.5 C 68.1563,646.283 68.8229,647.617 62.5,651.5C 61.8281,650.051 61.1614,648.718 60.5,647.5 Z"/></g>
<g><path style="opacity:0.691" fill="#FFFFFF" d="M 968.5,633.5 C 969.5,633.5 970.5,633.5 971.5,633.5C 971.5,634.833 971.5,636.167 971.5,637.5C 968.873,638.092 966.206,638.425 963.5,638.5C 963.41,640.696 963.077,642.863 962.5,645C 963.772,647.277 965.439,649.277 967.5,651C 967.025,652.763 966.358,654.43 965.5,656C 962.697,656.678 960.197,657.844 958,659.5C 955.401,663.702 956.401,666.702 961,668.5C 961.925,671.134 961.091,672.301 958.5,672C 952.649,667.572 946.983,662.906 941.5,658C 942.337,656.989 942.67,655.822 942.5,654.5C 949.844,654.221 957.177,653.721 964.5,653C 959.306,648.973 953.973,645.14 948.5,641.5C 947.548,639.955 947.215,638.288 947.5,636.5C 954.714,636.059 961.714,635.059 968.5,633.5 Z M 959.5,638.5 C 960.325,640.125 959.992,641.792 958.5,643.5C 956.37,642.533 954.37,641.366 952.5,640C 955.036,639.814 957.369,639.314 959.5,638.5 Z M 947.5,658.5 C 949.607,657.532 951.941,657.198 954.5,657.5C 954.509,659.308 954.009,660.975 953,662.5C 951.226,661.035 949.392,659.702 947.5,658.5 Z"/></g>
<g><path style="opacity:0.68" fill="#FFFFFF" d="M 56.5,662.5 C 62.9428,660.908 69.2761,658.908 75.5,656.5C 77.2828,657.348 77.7828,658.681 77,660.5C 74.2171,664.951 71.0504,669.117 67.5,673C 71.9503,672.577 76.2837,671.41 80.5,669.5C 81.2621,670.628 81.9288,671.795 82.5,673C 75.538,675.599 68.538,678.099 61.5,680.5C 60.2757,678.102 60.4424,675.769 62,673.5C 64.8333,670 67.6667,666.5 70.5,663C 66.3157,663.723 62.1491,664.889 58,666.5C 55.5003,665.842 55.0003,664.509 56.5,662.5 Z"/></g>
<g><path style="opacity:0.673" fill="#FFFFFF" d="M 939.5,668.5 C 941.5,668.5 943.5,668.5 945.5,668.5C 945.452,671.635 943.785,673.302 940.5,673.5C 938.849,675.402 938.516,677.402 939.5,679.5C 940.365,680.583 941.365,680.749 942.5,680C 944.346,675.487 947.513,672.321 952,670.5C 955.767,671.431 957.934,673.764 958.5,677.5C 958.596,684.567 955.263,688.067 948.5,688C 947.663,686.989 947.33,685.822 947.5,684.5C 953.052,684.089 955.218,681.089 954,675.5C 953.282,674.549 952.449,674.383 951.5,675C 949.402,677.854 947.069,680.521 944.5,683C 939.035,685.266 936.035,683.433 935.5,677.5C 935.488,673.861 936.821,670.861 939.5,668.5 Z"/></g>
<g><path style="opacity:0.683" fill="#FFFFFF" d="M 81.5,675.5 C 82.7498,675.577 83.5831,676.244 84,677.5C 85.9714,681.74 87.3047,686.073 88,690.5C 87.2753,691.059 86.4419,691.392 85.5,691.5C 79.5436,689.793 73.7103,687.793 68,685.5C 68.4313,689.298 69.5979,692.965 71.5,696.5C 70.6798,698.111 69.3464,698.778 67.5,698.5C 65.5416,692.917 63.8749,687.251 62.5,681.5C 69.208,682.234 75.708,683.9 82,686.5C 82.5,686.333 83,686.167 83.5,686C 82.1667,683 80.8333,680 79.5,677C 80.4158,676.722 81.0825,676.222 81.5,675.5 Z"/></g>
<g><path style="opacity:0.66" fill="#FFFFFF" d="M 930.5,693.5 C 932.75,693.181 934.75,693.681 936.5,695C 934.585,696.855 932.418,698.355 930,699.5C 927.871,701.909 928.204,703.909 931,705.5C 933.767,702.733 936.6,699.9 939.5,697C 946.785,696.038 949.618,699.205 948,706.5C 946.301,712.369 942.468,714.703 936.5,713.5C 936.433,710.234 938.099,708.734 941.5,709C 944.207,707.136 945.041,704.636 944,701.5C 942.887,700.289 941.72,700.289 940.5,701.5C 938.35,704.151 936.017,706.651 933.5,709C 928.561,710.063 925.894,708.063 925.5,703C 925.761,698.973 927.427,695.807 930.5,693.5 Z"/></g>
<g><path style="opacity:0.663" fill="#FFFFFF" d="M 79.5,694.5 C 83.7121,694.078 87.7121,694.744 91.5,696.5C 93.5857,694.977 95.2524,695.31 96.5,697.5C 94.9852,698.591 94.1519,699.924 94,701.5C 95.3561,700.62 96.8561,700.286 98.5,700.5C 98.8333,703.5 97.5,704.833 94.5,704.5C 92.3515,714.412 86.3515,717.912 76.5,715C 69.2165,706.873 70.2165,700.04 79.5,694.5 Z M 80.5,698.5 C 89.5223,697.833 92.1889,701.5 88.5,709.5C 79.8646,714.77 75.6979,712.436 76,702.5C 77.3968,700.93 78.8968,699.596 80.5,698.5 Z"/></g>
<g><path style="opacity:0.675" fill="#FFFFFF" d="M 922.5,708.5 C 923.643,708.908 924.643,709.575 925.5,710.5C 923.689,713.955 922.022,717.455 920.5,721C 921.665,722.084 922.998,722.917 924.5,723.5C 926.5,720.167 928.5,716.833 930.5,713.5C 931.5,714 932.5,714.5 933.5,715C 931.562,718.209 929.895,721.543 928.5,725C 930.243,727.064 932.243,727.564 934.5,726.5C 936.039,723.254 937.706,720.088 939.5,717C 940.449,716.383 941.282,716.549 942,717.5C 940.573,722.532 938.407,727.365 935.5,732C 928.688,730.184 922.188,727.351 916,723.5C 917.567,718.353 919.734,713.353 922.5,708.5 Z"/></g>
<g><path style="opacity:0.658" fill="#FFFFFF" d="M 93.5,713.5 C 100.704,714.222 103.871,718.222 103,725.5C 101.4,729.936 99.567,730.269 97.5,726.5C 100.195,722.891 99.5288,719.891 95.5,717.5C 94.1195,718 93.4528,719 93.5,720.5C 94.5299,724.465 94.6965,728.465 94,732.5C 88.1957,736.031 83.8623,734.697 81,728.5C 79.6625,723.95 80.8291,720.283 84.5,717.5C 86.6603,719.093 86.827,720.76 85,722.5C 84.218,725.257 84.718,727.757 86.5,730C 88.7055,730.732 90.3722,730.065 91.5,728C 88.1611,722.403 88.8277,717.57 93.5,713.5 Z"/></g>
<g><path style="opacity:0.684" fill="#FFFFFF" d="M 915.5,728.5 C 931.741,730.753 934.908,738.42 925,751.5C 918.117,748.643 911.617,745.143 905.5,741C 907.712,738.079 909.545,734.912 911,731.5C 912.409,730.219 913.909,729.219 915.5,728.5 Z M 915.5,732.5 C 920.513,732.256 924.346,734.256 927,738.5C 926.705,741.434 925.539,744.101 923.5,746.5C 918.966,744.739 914.966,742.239 911.5,739C 912.25,736.429 913.583,734.262 915.5,732.5 Z"/></g>
<g><path style="opacity:0.653" fill="#FFFFFF" d="M 105.5,729.5 C 107.832,730.162 108.499,731.495 107.5,733.5C 101.413,736.96 95.2464,740.294 89,743.5C 87.6319,742.007 87.4652,740.507 88.5,739C 94.5521,736.313 100.219,733.146 105.5,729.5 Z"/></g>
<g><path style="opacity:0.682" fill="#FFFFFF" d="M 106.5,737.5 C 114.141,739.099 116.974,743.766 115,751.5C 112.934,754.298 111.434,753.965 110.5,750.5C 113.296,745.754 111.963,742.754 106.5,741.5C 106.668,745.01 107.001,748.51 107.5,752C 106.92,758.426 103.587,760.426 97.5,758C 93.4122,753.717 92.5789,748.884 95,743.5C 96.9776,742.184 98.4776,742.684 99.5,745C 96.5825,747.169 96.0825,749.669 98,752.5C 100.024,756.119 102.191,756.286 104.5,753C 102.73,749.008 102.23,744.841 103,740.5C 104.145,739.364 105.312,738.364 106.5,737.5 Z"/></g>
<g><path style="opacity:0.659" fill="#FFFFFF" d="M 878.5,788.5 C 878.5,787.833 878.167,787.5 877.5,787.5C 880.082,781.064 883.749,775.23 888.5,770C 893.567,771.134 898.567,772.468 903.5,774C 888.555,759.606 890.888,755.939 910.5,763C 906.833,759.333 903.167,755.667 899.5,752C 900.313,750.115 901.647,749.449 903.5,750C 908.167,755.333 912.833,760.667 917.5,766C 917.002,767.158 916.169,767.991 915,768.5C 898.236,761.537 896.569,763.871 910,775.5C 910.47,777.549 909.636,778.883 907.5,779.5C 902.167,777.833 896.833,776.167 891.5,774.5C 889.186,775.409 887.52,777.076 886.5,779.5C 891.678,782.922 896.678,786.589 901.5,790.5C 900.855,791.646 900.022,792.646 899,793.5C 894,789.833 889,786.167 884,782.5C 882.821,785.26 880.988,787.26 878.5,788.5 Z"/></g>
<g><path style="opacity:0.66" fill="#FFFFFF" d="M 112.5,755.5 C 120.79,753.965 125.457,757.298 126.5,765.5C 126.547,768.073 125.547,770.073 123.5,771.5C 122.28,771.113 121.613,770.28 121.5,769C 123.321,759.627 119.988,756.96 111.5,761C 107.158,763.874 106.491,767.374 109.5,771.5C 111.678,773.439 114.011,774.106 116.5,773.5C 116.833,774.167 117.167,774.833 117.5,775.5C 106.232,777.328 102.065,772.662 105,761.5C 107.114,758.879 109.614,756.879 112.5,755.5 Z"/></g>
<g><path style="opacity:0.663" fill="#FFFFFF" d="M 129.5,769.5 C 130.812,770.145 131.812,771.145 132.5,772.5C 130.334,774.493 128.001,776.327 125.5,778C 127.31,780.644 129.31,783.144 131.5,785.5C 133.599,784.035 135.766,782.701 138,781.5C 139.169,782.009 140.002,782.842 140.5,784C 134.674,788.413 128.674,792.58 122.5,796.5C 121.28,796.113 120.613,795.28 120.5,794C 122.688,791.644 125.021,789.477 127.5,787.5C 126.533,785.37 125.366,783.37 124,781.5C 122.951,780.483 121.784,780.316 120.5,781C 118.679,782.743 116.679,784.243 114.5,785.5C 113.585,784.672 112.919,783.672 112.5,782.5C 118.017,777.915 123.683,773.582 129.5,769.5 Z"/></g>
<g><path style="opacity:0.657" fill="#FFFFFF" d="M 141.5,786.5 C 145.363,790.201 148.696,794.368 151.5,799C 151.387,800.28 150.72,801.113 149.5,801.5C 147.008,798.837 144.674,796.004 142.5,793C 140.339,792.278 138.672,792.945 137.5,795C 139.833,798 142.167,801 144.5,804C 143.667,804.833 142.833,805.667 142,806.5C 139.5,803.5 137,800.5 134.5,797.5C 132.483,798.174 130.817,799.341 129.5,801C 132.167,804.333 134.833,807.667 137.5,811C 135.522,813.015 133.688,812.848 132,810.5C 129.623,806.912 127.123,803.412 124.5,800C 130.236,795.481 135.903,790.981 141.5,786.5 Z"/></g>
<g><path style="opacity:0.666" fill="#FFFFFF" d="M 877.5,787.5 C 878.167,787.5 878.5,787.833 878.5,788.5C 883.097,792.147 887.764,795.814 892.5,799.5C 893.823,801.204 893.49,802.537 891.5,803.5C 889.076,802.577 887.076,801.077 885.5,799C 882.213,799.773 879.879,801.94 878.5,805.5C 880.792,807.657 883.125,809.824 885.5,812C 885.002,813.158 884.169,813.991 883,814.5C 877.094,810.126 871.261,805.626 865.5,801C 866.333,800.167 867.167,799.333 868,798.5C 870.333,800.167 872.667,801.833 875,803.5C 876.833,801 878.667,798.5 880.5,796C 878.957,794.122 877.124,792.622 875,791.5C 874.09,789.055 874.924,787.722 877.5,787.5 Z"/></g>
<g><path style="opacity:0.655" fill="#FFFFFF" d="M 150.5,803.5 C 156.457,803.954 160.124,807.121 161.5,813C 161.146,815.264 160.146,817.098 158.5,818.5C 156.209,817.104 155.875,815.271 157.5,813C 156.902,809.385 154.902,807.718 151.5,808C 151.043,808.414 150.709,808.914 150.5,809.5C 152.609,813.318 153.776,817.318 154,821.5C 151.947,825.292 148.781,826.458 144.5,825C 138.749,821.519 137.415,816.852 140.5,811C 142.074,810.301 143.407,810.635 144.5,812C 141.721,816.642 142.888,820.142 148,822.5C 149.022,821.646 149.855,820.646 150.5,819.5C 148.969,816.241 147.636,812.907 146.5,809.5C 146.866,806.744 148.2,804.744 150.5,803.5 Z"/></g>
<g><path style="opacity:0.581" fill="#FFFFFF" d="M 868.5,816.5 C 869.812,817.145 870.812,818.145 871.5,819.5C 869.833,821.833 867.833,823.833 865.5,825.5C 864.5,825.167 863.833,824.5 863.5,823.5C 864.931,820.961 866.597,818.628 868.5,816.5 Z"/></g>
<g><path style="opacity:0.624" fill="#FFFFFF" d="M 848.5,821.5 C 849.627,822.122 850.627,822.955 851.5,824C 849.833,825.667 848.167,827.333 846.5,829C 851.467,832.966 856.134,837.299 860.5,842C 859.534,843.678 858.201,844.345 856.5,844C 852.652,839.984 848.652,836.151 844.5,832.5C 839.86,836.473 835.527,840.806 831.5,845.5C 832.167,846.833 833.167,847.833 834.5,848.5C 836.833,846.5 839.167,844.5 841.5,842.5C 842.646,843.145 843.646,843.978 844.5,845C 842.167,847.333 839.833,849.667 837.5,852C 839.684,854.016 841.684,856.183 843.5,858.5C 843.113,859.72 842.28,860.387 841,860.5C 835.363,856.03 830.196,851.03 825.5,845.5C 833.188,837.479 840.855,829.479 848.5,821.5 Z"/></g>
<g><path style="opacity:0.654" fill="#FFFFFF" d="M 169.5,822.5 C 171.196,822.685 172.529,823.519 173.5,825C 171.269,826.61 169.269,828.443 167.5,830.5C 169.483,832.984 171.65,835.317 174,837.5C 175.858,834.588 178.358,833.088 181.5,833C 181.957,833.414 182.291,833.914 182.5,834.5C 177.796,840.205 172.463,845.205 166.5,849.5C 164.717,848.652 164.217,847.319 165,845.5C 167.158,844.174 168.992,842.507 170.5,840.5C 168.482,837.634 166.148,835.468 163.5,834C 161.65,836.018 159.65,837.851 157.5,839.5C 156.354,838.855 155.354,838.022 154.5,837C 159.395,831.936 164.395,827.103 169.5,822.5 Z"/></g>
<g><path style="opacity:0.691" fill="#FFFFFF" d="M 192.5,858.5 C 186.931,863.359 181.097,863.693 175,859.5C 170.437,851.454 172.271,845.287 180.5,841C 188.694,839.098 193.694,842.265 195.5,850.5C 194.801,853.31 193.801,855.977 192.5,858.5 Z M 183.5,843.5 C 190.333,844.505 192.499,848.172 190,854.5C 184.155,861.636 179.655,860.969 176.5,852.5C 177.697,848.634 180.031,845.634 183.5,843.5 Z"/></g>
<g><path style="opacity:0.686" fill="#FFFFFF" d="M 817.5,852.5 C 825.347,855.086 833.014,858.253 840.5,862C 839.601,863.236 838.434,864.07 837,864.5C 834.95,863.209 832.783,862.709 830.5,863C 828.649,864.684 826.982,866.517 825.5,868.5C 828.227,871.442 828.06,874.109 825,876.5C 822.138,870.248 819.472,863.915 817,857.5C 816.36,855.735 816.527,854.068 817.5,852.5 Z M 821.5,857.5 C 824.402,857.823 826.235,859.156 827,861.5C 826.311,862.357 825.478,863.023 824.5,863.5C 822.962,861.757 821.962,859.757 821.5,857.5 Z"/></g>
<g><path style="opacity:0.67" fill="#FFFFFF" d="M 192.5,858.5 C 198.891,854.092 204.724,854.759 210,860.5C 210.821,863.554 210.655,866.554 209.5,869.5C 206.677,868.615 206.01,866.948 207.5,864.5C 205.228,859.333 201.561,858.166 196.5,861C 190.538,866.625 191.204,871.125 198.5,874.5C 201.245,871.727 203.245,872.06 204.5,875.5C 196.021,879.761 190.688,877.261 188.5,868C 189.443,864.621 190.776,861.454 192.5,858.5 Z"/></g>
<g><path style="opacity:0.66" fill="#FFFFFF" d="M 808.5,860.5 C 814.306,865.146 819.306,870.646 823.5,877C 823.387,878.28 822.72,879.113 821.5,879.5C 818.976,877.81 816.976,875.643 815.5,873C 814.833,872.333 814.167,872.333 813.5,873C 811.65,875.018 809.65,876.851 807.5,878.5C 809.38,881.091 811.38,883.591 813.5,886C 812.646,887.022 811.646,887.855 810.5,888.5C 805.127,883.425 800.461,877.759 796.5,871.5C 797.242,870.713 798.075,870.047 799,869.5C 801,871.5 803,873.5 805,875.5C 807.303,873.607 809.47,871.607 811.5,869.5C 810.408,866.906 808.741,864.739 806.5,863C 807.381,862.292 808.047,861.458 808.5,860.5 Z"/></g>
<g><path style="opacity:0.657" fill="#FFFFFF" d="M 214.5,866.5 C 216.346,866.222 217.68,866.889 218.5,868.5C 216.642,870.524 214.975,872.691 213.5,875C 215.5,876.667 217.5,878.333 219.5,880C 220.167,880.667 220.833,880.667 221.5,880C 223.293,878.22 224.96,876.387 226.5,874.5C 227.646,875.145 228.646,875.978 229.5,877C 224.996,882.881 220.162,888.381 215,893.5C 213.72,893.387 212.887,892.72 212.5,891.5C 214.38,888.909 216.38,886.409 218.5,884C 215.705,882.207 213.205,880.04 211,877.5C 209.023,880.312 206.856,882.978 204.5,885.5C 203.354,884.855 202.354,884.022 201.5,883C 205.721,877.379 210.055,871.879 214.5,866.5 Z"/></g>
<g><path style="opacity:0.681" fill="#FFFFFF" d="M 788.5,876.5 C 791.518,876.335 794.518,876.502 797.5,877C 798.841,878.826 798.341,879.993 796,880.5C 788.672,879.49 786.006,882.49 788,889.5C 791.836,895.993 796.169,896.659 801,891.5C 801.651,889.765 801.485,888.098 800.5,886.5C 801.328,885.585 802.328,884.919 803.5,884.5C 806.511,890.656 804.845,895.156 798.5,898C 792.731,899.368 788.231,897.534 785,892.5C 782.276,886.266 783.442,880.932 788.5,876.5 Z"/></g>
<g><path style="opacity:0.685" fill="#FFFFFF" d="M 228.5,881.5 C 238.002,880.004 242.336,884.004 241.5,893.5C 238.079,893.762 237.079,892.428 238.5,889.5C 236.981,886.44 234.648,884.94 231.5,885C 231.043,885.414 230.709,885.914 230.5,886.5C 232.138,889.304 233.971,891.971 236,894.5C 236.644,903.28 232.811,905.78 224.5,902C 220.387,898.491 219.554,894.324 222,889.5C 223.914,892.252 225.414,895.252 226.5,898.5C 229.239,901.464 231.239,901.131 232.5,897.5C 230.505,894.656 228.672,891.656 227,888.5C 226.391,885.935 226.891,883.601 228.5,881.5 Z"/></g>
<g><path style="opacity:0.676" fill="#FFFFFF" d="M 773.5,888.5 C 776.908,887.828 779.575,888.828 781.5,891.5C 781.167,892.5 780.5,893.167 779.5,893.5C 775.53,891.626 772.53,892.626 770.5,896.5C 770.709,897.086 771.043,897.586 771.5,898C 775.233,897.821 778.9,896.988 782.5,895.5C 788.091,896.651 789.925,899.984 788,905.5C 784.346,910.193 779.846,911.693 774.5,910C 771.921,908.388 771.921,906.888 774.5,905.5C 779.36,908.414 783.027,907.248 785.5,902C 784.646,900.978 783.646,900.145 782.5,899.5C 779.286,900.905 775.952,901.905 772.5,902.5C 768.881,902.214 766.881,900.214 766.5,896.5C 767.485,892.523 769.818,889.856 773.5,888.5 Z"/></g>
<g><path style="opacity:0.688" fill="#FFFFFF" d="M 244.5,893.5 C 254.147,891.962 258.813,895.962 258.5,905.5C 255.306,905.824 254.306,904.658 255.5,902C 251.995,895.492 247.829,894.992 243,900.5C 239.18,906.197 240.513,910.197 247,912.5C 249.348,910.067 251.515,910.067 253.5,912.5C 247.836,916.859 242.67,916.193 238,910.5C 236.305,903.241 238.472,897.575 244.5,893.5 Z"/></g>
<g><path style="opacity:0.652" fill="#FFFFFF" d="M 761.5,896.5 C 763.346,896.222 764.68,896.889 765.5,898.5C 763.64,899.939 761.973,901.605 760.5,903.5C 763.714,908.211 766.714,913.044 769.5,918C 768.991,919.169 768.158,920.002 767,920.5C 763.568,915.292 759.901,910.292 756,905.5C 754.343,906.484 752.677,907.484 751,908.5C 750.13,907.892 749.63,907.059 749.5,906C 753.34,902.664 757.34,899.497 761.5,896.5 Z"/></g>
<g><path style="opacity:0.669" fill="#FFFFFF" d="M 262.5,901.5 C 264.09,901.628 265.423,902.295 266.5,903.5C 265.42,905.996 264.086,908.33 262.5,910.5C 264.83,912.667 267.497,914.334 270.5,915.5C 272.412,913.343 274.079,911.009 275.5,908.5C 276.646,909.145 277.646,909.978 278.5,911C 274.625,917.252 270.625,923.419 266.5,929.5C 265.354,928.855 264.354,928.022 263.5,927C 265.291,924.586 266.957,922.086 268.5,919.5C 266.241,917.455 263.741,915.789 261,914.5C 258.523,916.778 256.523,919.445 255,922.5C 253.842,922.002 253.009,921.169 252.5,920C 256.075,913.935 259.408,907.769 262.5,901.5 Z"/></g>
<g><path style="opacity:0.676" fill="#FFFFFF" d="M 743.5,908.5 C 751.489,908.319 753.822,911.819 750.5,919C 754.112,920.139 757.446,921.806 760.5,924C 759.646,925.022 758.646,925.855 757.5,926.5C 753.527,923.784 749.194,922.617 744.5,923C 743.978,923.561 743.645,924.228 743.5,925C 744.5,927.333 745.5,929.667 746.5,932C 745.991,933.169 745.158,934.002 744,934.5C 740.167,928.167 736.333,921.833 732.5,915.5C 736.062,912.892 739.729,910.559 743.5,908.5 Z M 743.5,912.5 C 745.665,912.116 747.332,912.783 748.5,914.5C 746.807,917.19 744.473,919.19 741.5,920.5C 739.954,919.788 738.954,918.622 738.5,917C 739.761,915.038 741.428,913.538 743.5,912.5 Z"/></g>
<g><path style="opacity:0.674" fill="#FFFFFF" d="M 280.5,912.5 C 282.252,912.418 283.252,913.251 283.5,915C 280.911,919.512 278.577,924.178 276.5,929C 277.829,932.994 280.496,934.327 284.5,933C 287.167,928.667 289.833,924.333 292.5,920C 294.074,919.301 295.407,919.635 296.5,921C 293.541,925.751 290.707,930.584 288,935.5C 283.78,938.164 279.613,937.997 275.5,935C 273.848,933.53 272.848,931.697 272.5,929.5C 274.375,923.419 277.041,917.752 280.5,912.5 Z"/></g>
<g><path style="opacity:0.653" fill="#FFFFFF" d="M 728.5,916.5 C 729.376,916.369 730.043,916.702 730.5,917.5C 733.632,923.793 736.966,929.959 740.5,936C 739.407,937.365 738.074,937.699 736.5,937C 732.913,931.161 729.58,925.161 726.5,919C 727.381,918.292 728.047,917.458 728.5,916.5 Z"/></g>
<g><path style="opacity:0.658" fill="#FFFFFF" d="M 723.5,919.5 C 724.75,919.577 725.583,920.244 726,921.5C 727.789,928.432 728.789,935.432 729,942.5C 728.282,943.451 727.449,943.617 726.5,943C 722.65,939.451 719.15,935.617 716,931.5C 716.432,936.67 717.265,941.836 718.5,947C 717.902,948.301 716.902,949.135 715.5,949.5C 710.157,944.156 705.157,938.489 700.5,932.5C 701.348,930.717 702.681,930.217 704.5,931C 707.333,934.5 710.167,938 713,941.5C 712.904,937.335 712.404,933.168 711.5,929C 711.367,925.928 712.701,924.594 715.5,925C 717.963,928.465 720.796,931.631 724,934.5C 724.241,930.61 723.741,926.777 722.5,923C 722.648,921.744 722.982,920.577 723.5,919.5 Z"/></g>
<g><path style="opacity:0.634" fill="#FFFFFF" d="M 298.5,922.5 C 299.5,922.5 300.5,922.5 301.5,922.5C 300.067,928.867 297.401,934.701 293.5,940C 296.167,941.333 298.833,942.667 301.5,944C 302.337,945.011 302.67,946.178 302.5,947.5C 297.387,946.612 292.72,944.612 288.5,941.5C 291.591,934.982 294.925,928.649 298.5,922.5 Z"/></g>
<g><path style="opacity:0.668" fill="#FFFFFF" d="M 313.5,929.5 C 315.252,929.418 316.252,930.251 316.5,932C 313.402,938.024 310.735,944.191 308.5,950.5C 306.365,950.853 305.032,950.02 304.5,948C 307.377,941.746 310.377,935.579 313.5,929.5 Z"/></g>
<g><path style="opacity:0.7" fill="#FFFFFF" d="M 319.5,932.5 C 320.583,932.539 321.583,932.873 322.5,933.5C 323.945,939.246 325.445,944.913 327,950.5C 328.667,946.833 330.333,943.167 332,939.5C 333.011,938.663 334.178,938.33 335.5,938.5C 333.726,945.652 331.059,952.485 327.5,959C 326.451,959.492 325.451,959.326 324.5,958.5C 323.055,952.754 321.555,947.087 320,941.5C 318.607,945.286 316.941,948.952 315,952.5C 313.989,953.337 312.822,953.67 311.5,953.5C 313.772,946.351 316.439,939.351 319.5,932.5 Z"/></g>
<g><path style="opacity:0.696" fill="#FFFFFF" d="M 687.5,937.5 C 696.056,939.932 699.556,945.598 698,954.5C 697.535,955.931 696.701,957.097 695.5,958C 692.209,959.597 688.875,961.097 685.5,962.5C 681.594,956.515 678.594,950.015 676.5,943C 679.932,940.618 683.598,938.784 687.5,937.5 Z M 686.5,941.5 C 691.668,942.119 694.335,945.119 694.5,950.5C 693.879,954.454 691.546,956.787 687.5,957.5C 684.868,953.734 682.868,949.567 681.5,945C 682.921,943.377 684.588,942.21 686.5,941.5 Z"/></g>
<g><path style="opacity:0.679" fill="#FFFFFF" d="M 338.5,942.5 C 346.971,940.869 351.304,944.202 351.5,952.5C 349.897,952.688 348.563,952.188 347.5,951C 348.214,949.657 347.88,948.324 346.5,947C 343.737,944.761 341.404,945.094 339.5,948C 342.427,950.382 345.261,952.882 348,955.5C 350.17,961.146 348.17,964.479 342,965.5C 336.371,964.941 332.871,961.941 331.5,956.5C 331.919,955.328 332.585,954.328 333.5,953.5C 335.102,955.427 336.435,957.594 337.5,960C 340.457,962.121 343.124,961.954 345.5,959.5C 343.146,956.312 340.312,953.645 337,951.5C 335.439,948.294 335.939,945.294 338.5,942.5 Z"/></g>
<g><path style="opacity:0.688" fill="#FFFFFF" d="M 671.5,943.5 C 672.496,943.414 673.329,943.748 674,944.5C 676.267,950.467 678.433,956.467 680.5,962.5C 680.167,964.167 679.167,965.167 677.5,965.5C 673.141,961.974 668.641,958.641 664,955.5C 665.032,960.115 666.198,964.782 667.5,969.5C 666.167,969.5 664.833,969.5 663.5,969.5C 661.665,962.828 659.332,956.328 656.5,950C 657.93,948.56 659.597,948.226 661.5,949C 665.639,951.639 669.639,954.472 673.5,957.5C 673.833,957.167 674.167,956.833 674.5,956.5C 671.988,952.345 670.988,948.011 671.5,943.5 Z"/></g>
<g><path style="opacity:0.671" fill="#FFFFFF" d="M 354.5,946.5 C 360.49,948.268 366.157,950.602 371.5,953.5C 371.167,954.5 370.5,955.167 369.5,955.5C 367.833,954.833 366.167,954.167 364.5,953.5C 362.306,958.746 360.306,964.08 358.5,969.5C 357.311,970.429 355.978,970.762 354.5,970.5C 356.372,964.217 358.039,957.884 359.5,951.5C 355.119,951.867 353.452,950.201 354.5,946.5 Z"/></g>
<g><path style="opacity:0.709" fill="#FFFFFF" d="M 651.5,950.5 C 653.124,950.36 654.29,951.027 655,952.5C 658.211,958.573 659.044,964.907 657.5,971.5C 653.015,974.979 648.348,975.313 643.5,972.5C 641.197,967.292 639.197,961.959 637.5,956.5C 638.32,954.889 639.654,954.222 641.5,954.5C 642.562,959.686 644.229,964.686 646.5,969.5C 650.606,972.294 653.606,971.294 655.5,966.5C 653.163,961.152 651.829,955.819 651.5,950.5 Z"/></g>
<g><path style="opacity:0.668" fill="#FFFFFF" d="M 372.5,953.5 C 373.833,953.5 375.167,953.5 376.5,953.5C 375.249,961.087 373.083,968.42 370,975.5C 368.933,974.809 367.766,974.309 366.5,974C 369.003,967.323 371.003,960.49 372.5,953.5 Z"/></g>
<g><path style="opacity:0.676" fill="#FFFFFF" d="M 395.5,962.5 C 392.873,961.908 390.206,961.575 387.5,961.5C 386.325,967.201 384.991,972.868 383.5,978.5C 382.167,978.5 380.833,978.5 379.5,978.5C 380.756,972.397 382.422,966.397 384.5,960.5C 382.237,959.35 379.904,958.35 377.5,957.5C 377.919,956.328 378.585,955.328 379.5,954.5C 384.465,956.099 389.465,957.599 394.5,959C 395.337,960.011 395.67,961.178 395.5,962.5 Z"/></g>
<g><path style="opacity:0.671" fill="#FFFFFF" d="M 624.5,958.5 C 626.199,958.34 627.866,958.506 629.5,959C 627.375,962.082 625.375,965.249 623.5,968.5C 627.141,971.805 630.808,975.138 634.5,978.5C 633.131,980.124 631.464,980.624 629.5,980C 626.948,977.147 624.115,974.647 621,972.5C 620.044,973.579 619.211,974.745 618.5,976C 619.554,978.382 620.221,980.882 620.5,983.5C 619.167,983.5 617.833,983.5 616.5,983.5C 615.149,976.762 613.482,970.096 611.5,963.5C 612.32,961.889 613.654,961.222 615.5,961.5C 615.721,964.392 616.554,967.059 618,969.5C 620.393,965.946 622.56,962.28 624.5,958.5 Z"/></g>
<g><path style="opacity:0.698" fill="#FFFFFF" d="M 395.5,962.5 C 396.441,958.957 398.108,958.624 400.5,961.5C 398.532,967.027 397.699,972.693 398,978.5C 401.889,981.611 404.889,980.944 407,976.5C 408,972.167 409,967.833 410,963.5C 411.99,962.601 413.157,963.435 413.5,966C 412.716,972.159 410.716,977.826 407.5,983C 402.725,984.159 398.392,983.326 394.5,980.5C 393.923,978.894 393.59,977.228 393.5,975.5C 394.169,971.157 394.836,966.823 395.5,962.5 Z"/></g>
<g><path style="opacity:0.682" fill="#FFFFFF" d="M 415.5,963.5 C 420.751,964.851 426.084,966.018 431.5,967C 432.337,968.011 432.67,969.178 432.5,970.5C 429.894,969.864 427.394,969.864 425,970.5C 424,975.5 423,980.5 422,985.5C 420.847,987.497 419.347,987.83 417.5,986.5C 418.833,980.833 420.167,975.167 421.5,969.5C 419.293,968.365 416.96,967.699 414.5,967.5C 414.433,966.041 414.766,964.708 415.5,963.5 Z"/></g>
<g><path style="opacity:0.691" fill="#FFFFFF" d="M 604.5,963.5 C 606.451,963.227 607.951,963.893 609,965.5C 610.246,970.983 611.412,976.483 612.5,982C 612.562,984.965 611.395,985.798 609,984.5C 607.653,977.447 606.153,970.447 604.5,963.5 Z"/></g>
<g><path style="opacity:0.686" fill="#FFFFFF" d="M 598.5,964.5 C 599.5,964.5 600.5,964.5 601.5,964.5C 602.51,971.563 603.844,978.563 605.5,985.5C 603.926,986.631 602.259,986.798 600.5,986C 597,982.5 593.5,979 590,975.5C 589.948,980.199 590.448,984.866 591.5,989.5C 590.167,989.5 588.833,989.5 587.5,989.5C 586.68,982.401 585.347,975.401 583.5,968.5C 585.074,967.369 586.741,967.202 588.5,968C 592,971.5 595.5,975 599,978.5C 599.267,974.428 598.767,970.428 597.5,966.5C 597.863,965.817 598.196,965.15 598.5,964.5 Z"/></g>
<g><path style="opacity:0.576" fill="#FFFFFF" d="M 463.5,967.5 C 464.5,967.5 465.5,967.5 466.5,967.5C 466.5,968.833 466.5,970.167 466.5,971.5C 463.046,971.733 462.046,970.4 463.5,967.5 Z"/></g>
<g><path style="opacity:0.537" fill="#FFFFFF" d="M 468.5,967.5 C 469.833,967.5 471.167,967.5 472.5,967.5C 472.833,970.5 471.5,971.833 468.5,971.5C 468.5,970.167 468.5,968.833 468.5,967.5 Z"/></g>
<g><path style="opacity:0.711" fill="#FFFFFF" d="M 441.5,968.5 C 446.485,969.248 451.485,969.915 456.5,970.5C 456.657,971.873 456.49,973.207 456,974.5C 452.233,973.632 448.399,972.965 444.5,972.5C 444.5,974.5 444.5,976.5 444.5,978.5C 447.545,978.508 450.545,978.841 453.5,979.5C 453.5,980.5 453.5,981.5 453.5,982.5C 450.119,982.54 446.786,982.207 443.5,981.5C 443.543,984.91 443.043,988.243 442,991.5C 440.989,990.663 439.822,990.33 438.5,990.5C 439.663,983.192 440.663,975.859 441.5,968.5 Z"/></g>
<g><path style="opacity:0.709" fill="#FFFFFF" d="M 577.5,968.5 C 578.833,968.5 580.167,968.5 581.5,968.5C 582.092,975.568 583.092,982.568 584.5,989.5C 583.311,990.429 581.978,990.762 580.5,990.5C 580.112,987.121 579.445,983.788 578.5,980.5C 575.891,981.23 573.224,981.73 570.5,982C 569.534,985.435 569.534,988.935 570.5,992.5C 569.167,992.5 567.833,992.5 566.5,992.5C 565.686,985.137 564.686,977.803 563.5,970.5C 564.833,970.5 566.167,970.5 567.5,970.5C 568.092,973.127 568.425,975.794 568.5,978.5C 571.833,978.167 575.167,977.833 578.5,977.5C 578.037,974.518 577.704,971.518 577.5,968.5 Z"/></g>
<g><path style="opacity:0.694" fill="#FFFFFF" d="M 458.5,970.5 C 459.708,971.234 461.041,971.567 462.5,971.5C 461.541,977.138 461.374,982.805 462,988.5C 464.667,991.167 467.333,991.167 470,988.5C 471.234,983.233 472.067,977.9 472.5,972.5C 473.978,972.238 475.311,972.571 476.5,973.5C 475.732,977.445 475.232,981.445 475,985.5C 473.34,993.914 468.507,996.414 460.5,993C 459.667,992.167 458.833,991.333 458,990.5C 457.454,983.816 457.62,977.149 458.5,970.5 Z"/></g>
<g><path style="opacity:0.674" fill="#FFFFFF" d="M 549.5,971.5 C 555.267,970.237 559.6,972.071 562.5,977C 561.892,977.87 561.059,978.37 560,978.5C 558.24,976.586 556.073,975.253 553.5,974.5C 548.003,976.158 546.17,979.825 548,985.5C 549.287,989.729 552.12,991.229 556.5,990C 558.422,988.58 559.755,986.747 560.5,984.5C 562.724,985.081 563.557,986.414 563,988.5C 557.488,996.062 551.488,996.395 545,989.5C 541.853,982.117 543.353,976.117 549.5,971.5 Z"/></g>
<g><path style="opacity:0.715" fill="#FFFFFF" d="M 478.5,972.5 C 483.504,972.889 488.504,973.389 493.5,974C 497.919,978.819 497.252,982.819 491.5,986C 493.869,988.57 495.869,991.404 497.5,994.5C 495.833,995.833 494.167,995.833 492.5,994.5C 490.869,991.404 488.869,988.57 486.5,986C 485.207,985.51 483.873,985.343 482.5,985.5C 481.955,988.813 481.455,992.146 481,995.5C 479.989,994.663 478.822,994.33 477.5,994.5C 478.392,987.209 478.726,979.876 478.5,972.5 Z M 482.5,976.5 C 485.187,976.336 487.854,976.503 490.5,977C 493.167,978.667 493.167,980.333 490.5,982C 487.854,982.497 485.187,982.664 482.5,982.5C 482.5,980.5 482.5,978.5 482.5,976.5 Z"/></g>
<g><path style="opacity:0.706" fill="#FFFFFF" d="M 535.5,972.5 C 537.167,972.5 538.833,972.5 540.5,972.5C 540.5,973.833 540.5,975.167 540.5,976.5C 536.5,976.5 532.5,976.5 528.5,976.5C 528.5,978.5 528.5,980.5 528.5,982.5C 532.519,982.354 536.519,982.021 540.5,981.5C 540.5,982.833 540.5,984.167 540.5,985.5C 536.486,985.334 532.486,985.501 528.5,986C 529.406,987.699 529.739,989.533 529.5,991.5C 533.833,991.5 538.167,991.5 542.5,991.5C 542.5,992.5 542.5,993.5 542.5,994.5C 536.879,995.354 531.212,995.687 525.5,995.5C 525.277,988.16 524.944,980.827 524.5,973.5C 528.371,973.815 532.038,973.482 535.5,972.5 Z"/></g>
<g><path style="opacity:0.656" fill="#FFFFFF" d="M 505.5,973.5 C 511.5,973.5 517.5,973.5 523.5,973.5C 523.5,974.833 523.5,976.167 523.5,977.5C 521.167,977.5 518.833,977.5 516.5,977.5C 516.5,983.5 516.5,989.5 516.5,995.5C 515.167,995.5 513.833,995.5 512.5,995.5C 512.5,989.5 512.5,983.5 512.5,977.5C 510.167,977.5 507.833,977.5 505.5,977.5C 505.5,976.167 505.5,974.833 505.5,973.5 Z"/></g>
</svg>
