<?xml version="1.0" encoding="UTF-8"?>
<!DOCTYPE svg PUBLIC "-//W3C//DTD SVG 1.1//EN" "http://www.w3.org/Graphics/SVG/1.1/DTD/svg11.dtd">
<svg xmlns="http://www.w3.org/2000/svg" version="1.1" width="512px" height="512px" style="shape-rendering:geometricPrecision; text-rendering:geometricPrecision; image-rendering:optimizeQuality; fill-rule:evenodd; clip-rule:evenodd" xmlns:xlink="http://www.w3.org/1999/xlink">
<g><path style="opacity:0.96" fill="#789ba5" d="M -0.5,250.5 C -0.5,247.833 -0.5,245.167 -0.5,242.5C 0.626561,241.878 1.62656,241.045 2.5,240C 11.5614,238.516 20.5614,236.85 29.5,235C 33.4611,227.578 37.2944,220.078 41,212.5C 45,208.5 49,208.5 53,212.5C 56.7056,220.078 60.5389,227.578 64.5,235C 73.4386,236.85 82.4386,238.516 91.5,240C 94.886,243.373 95.386,247.206 93,251.5C 87.0315,256.467 81.3648,261.801 76,267.5C 76.236,276.423 77.4026,285.256 79.5,294C 79.0518,298.281 76.7185,300.781 72.5,301.5C 63.864,297.517 55.1973,293.517 46.5,289.5C 38.2884,293.773 29.9551,297.773 21.5,301.5C 17.27,300.77 14.9367,298.27 14.5,294C 16.3817,285.218 17.5484,276.385 18,267.5C 11.6632,261.996 5.49649,256.329 -0.5,250.5 Z"/></g>
</svg>
