<?xml version="1.0" standalone="no"?>
<!DOCTYPE svg PUBLIC "-//W3C//DTD SVG 20010904//EN"
 "http://www.w3.org/TR/2001/REC-SVG-20010904/DTD/svg10.dtd">
<svg version="1.0" xmlns="http://www.w3.org/2000/svg"
 width="50px" height="50px" viewBox="0 0 1280.000000 1102.000000"
 preserveAspectRatio="xMidYMid meet">
<metadata>
Created by potrace 1.15, written by Peter Selinger 2001-2017
</metadata>
<g transform="translate(0.000000,1102.000000) scale(0.100000,-0.100000)"
fill="#f44336" stroke="none">
<path d="M2897 10919 c-30 -52 -265 -458 -522 -904 -257 -445 -895 -1549
-1416 -2452 -522 -904 -949 -1645 -949 -1648 0 -3 1325 -5 2945 -5 l2946 0
-12 23 c-11 20 -328 571 -609 1057 -192 332 -2007 3475 -2162 3743 -83 144
-154 266 -158 271 -5 4 -33 -34 -63 -85z"/>

</g>
</svg>
